<svg viewBox="0 0 1200 600" xmlns="http://www.w3.org/2000/svg">
  <style>
    @keyframes fadeInOut {
      0%, 100% { opacity: 0; }
      22%, 84% { opacity: 1; }
    }
    @keyframes pulseRing {
      0%, 100% { opacity: 0; }
      22% { opacity: 0.5; }
      84% { opacity: 0.5; }
    }
    @keyframes slideIn {
      from { transform: scaleX(0); opacity: 0; }
      to { transform: scaleX(1); opacity: 1; }
    }
    @keyframes scaleIn {
      from { transform: scale(0); opacity: 0; }
      to { transform: scale(1); opacity: 1; }
    }
    @keyframes slideLeft {
      from { transform: translateX(-50px); opacity: 0; }
      to { transform: translateX(0); opacity: 1; }
    }
    @keyframes slideRight {
      from { transform: translateX(50px); opacity: 0; }
      to { transform: translateX(0); opacity: 1; }
    }
    @keyframes slideUp {
      from { transform: translateY(30px); opacity: 0; }
      to { transform: translateY(0); opacity: 1; }
    }
    @keyframes blink {
      0%, 100% { opacity: 0.3; }
      50% { opacity: 1; }
    }
    @keyframes pulse {
      0%, 100% { opacity: 0.4; }
      50% { opacity: 0.7; }
    }
    @keyframes scan {
      0%, 100% { transform: translateY(-200px); opacity: 0; }
      10% { opacity: 0.7; }
      90% { opacity: 0.7; }
    }
    @keyframes glow {
      0%, 100% { opacity: 0.08; }
      50% { opacity: 0.18; }
    }
    @keyframes breathe {
      0%, 100% { opacity: 0.15; }
      50% { opacity: 0.25; }
    }
    @keyframes lineMove {
      0%, 100% { 
        d: path("M215 110 L260 85 L305 100 L350 75 L395 95 L440 70 L485 85 L530 65 L575 80 L620 60 L665 75");
      }
      50% { 
        d: path("M215 105 L260 90 L305 88 L350 80 L395 85 L440 78 L485 82 L530 72 L575 78 L620 68 L665 75");
      }
    }
    @keyframes float {
      0%, 100% { transform: translateY(0); opacity: 0; }
      10% { opacity: 0.6; }
      90% { opacity: 0.6; }
    }
    @keyframes connectPulse {
      0%, 100% { stroke-dashoffset: 200; }
      50% { stroke-dashoffset: 0; }
    }
    
    .logo-phase { animation: fadeInOut 4.5s ease-in-out forwards; }
    .pulse-ring-1 { animation: pulseRing 4.5s ease-in-out forwards; }
    .pulse-ring-2 { animation: pulseRing 4.5s 0.15s ease-in-out forwards; }
    .pulse-ring-3 { animation: pulseRing 4.5s 0.3s ease-in-out forwards; }
    .pulse-ring-4 { animation: pulseRing 4.5s 0.45s ease-in-out forwards; }
    
    .soc-phase { opacity: 0; animation: fadeInOut 20s 4s ease-in-out forwards; }
    .wall { animation: slideIn 0.8s 4.5s ease-out forwards; animation-fill-mode: both; }
    .main-screen { animation: scaleIn 0.6s 5s ease-out forwards; animation-fill-mode: both; }
    .top-left-0 { animation: slideLeft 0.6s 5.2s ease-out forwards; animation-fill-mode: both; }
    .top-left-1 { animation: slideLeft 0.6s 5.4s ease-out forwards; animation-fill-mode: both; }
    .top-right-0 { animation: slideRight 0.6s 5.2s ease-out forwards; animation-fill-mode: both; }
    .top-right-1 { animation: slideRight 0.6s 5.4s ease-out forwards; animation-fill-mode: both; }
    .bottom-monitor-0 { animation: slideUp 0.5s 5.5s ease-out forwards; animation-fill-mode: both; }
    .bottom-monitor-1 { animation: slideUp 0.5s 5.65s ease-out forwards; animation-fill-mode: both; }
    .bottom-monitor-2 { animation: slideUp 0.5s 5.8s ease-out forwards; animation-fill-mode: both; }
    .bottom-monitor-3 { animation: slideUp 0.5s 5.95s ease-out forwards; animation-fill-mode: both; }
    .desk { animation: slideUp 0.6s 5.8s ease-out forwards; animation-fill-mode: both; }
    .operator { animation: slideUp 0.6s 6.2s ease-out forwards; animation-fill-mode: both; }
    .label { animation: slideUp 0.8s 6.5s ease-out forwards; animation-fill-mode: both; }
    
    .blink { animation: blink 1.5s infinite; }
    .pulse { animation: pulse 2s infinite; }
    .scan { animation: scan 4s 6.5s linear infinite; }
    .glow { animation: glow 2.5s 6s ease-in-out infinite; }
    .breathe { animation: breathe 3s 5.5s ease-in-out infinite; }
    .line-graph { animation: lineMove 4s 6s ease-in-out infinite; }
    .float { animation: float 3s 7s infinite; }
    .connect-line { animation: connectPulse 3s 6.5s ease-in-out infinite; }
  </style>

  <defs>
    <linearGradient id="techGrad" x1="0%" y1="0%" x2="100%" y2="0%">
      <stop offset="0%" stop-color="#60a5fa" />
      <stop offset="50%" stop-color="#38bdf8" />
      <stop offset="100%" stop-color="#22c55e" />
    </linearGradient>
    
    <linearGradient id="screenGlow" x1="0%" y1="0%" x2="0%" y2="100%">
      <stop offset="0%" stop-color="#3b82f6" stop-opacity="0.6" />
      <stop offset="100%" stop-color="#1d4ed8" stop-opacity="0.2" />
    </linearGradient>

    <filter id="glow">
      <feGaussianBlur stdDeviation="4" result="coloredBlur"/>
      <feMerge>
        <feMergeNode in="coloredBlur"/>
        <feMergeNode in="SourceGraphic"/>
      </feMerge>
    </filter>

    <filter id="softGlow">
      <feGaussianBlur stdDeviation="2" result="coloredBlur"/>
      <feMerge>
        <feMergeNode in="coloredBlur"/>
        <feMergeNode in="SourceGraphic"/>
      </feMerge>
    </filter>

    <filter id="redGlow">
      <feGaussianBlur stdDeviation="3" result="coloredBlur"/>
      <feMerge>
        <feMergeNode in="coloredBlur"/>
        <feMergeNode in="SourceGraphic"/>
      </feMerge>
    </filter>

    <pattern id="scrollGrid" width="40" height="40" patternUnits="userSpaceOnUse">
      <path d="M40 0H0V40" fill="none" stroke="#3b82f6" stroke-opacity="0.1"/>
    </pattern>
  </defs>

  <!-- Background -->
  <rect width="1200" height="600" fill="url(#bgGrad)"/>
  <radialGradient id="bgGrad">
    <stop offset="0%" stop-color="#1e3a5f"/>
    <stop offset="100%" stop-color="#0f172a"/>
  </radialGradient>

  <!-- ================================================= -->
  <!-- PHASE 1: TECHSEC LOGO -->
  <!-- ================================================= -->
  <g class="logo-phase">
    <text x="600" y="280" font-family="Arial, sans-serif" font-size="120" font-weight="bold" 
          fill="url(#techGrad)" text-anchor="middle" letter-spacing="8" filter="url(#glow)">
      TECHSEC
    </text>

    <text x="600" y="350" font-family="Arial, sans-serif" font-size="22" 
          fill="#60a5fa" text-anchor="middle" letter-spacing="8">
      SECURITY OPERATIONS CENTER
    </text>

    <circle cx="600" cy="280" r="100" fill="none" stroke="#38bdf8" stroke-width="2" class="pulse-ring-1"/>
    <circle cx="600" cy="280" r="140" fill="none" stroke="#38bdf8" stroke-width="2" class="pulse-ring-2"/>
    <circle cx="600" cy="280" r="180" fill="none" stroke="#38bdf8" stroke-width="2" class="pulse-ring-3"/>
    <circle cx="600" cy="280" r="220" fill="none" stroke="#38bdf8" stroke-width="2" class="pulse-ring-4"/>
  </g>

  <!-- ================================================= -->
  <!-- PHASE 2: SOC ROOM - NON-OVERLAPPING LAYOUT -->
  <!-- ================================================= -->
  <g class="soc-phase">
    <!-- Monitor Wall Frame -->
    <rect x="60" y="40" width="1080" height="250" rx="18" fill="#0a1628" 
          stroke="#3b82f6" stroke-width="3" class="wall"/>

    <!-- TOP LEFT Monitors -->
    <g class="top-left-0" opacity="0">
      <rect x="80" y="60" width="140" height="90" rx="8" fill="#1a2332" 
            stroke="#3b82f6" stroke-width="2.5"/>
      <!-- Red dots -->
      <circle cx="95" cy="72" r="4" fill="#ef4444" filter="url(#redGlow)"/>
      <circle cx="107" cy="72" r="4" fill="#ef4444" filter="url(#redGlow)"/>
      <circle cx="119" cy="72" r="4" fill="#ef4444" filter="url(#redGlow)" class="blink"/>
      
      <!-- Bar chart -->
      <rect x="100" y="115" width="10" height="25" fill="#38bdf8" rx="2"/>
      <rect x="115" y="105" width="10" height="35" fill="#38bdf8" rx="2"/>
      <rect x="130" y="120" width="10" height="20" fill="#38bdf8" rx="2"/>
      <rect x="145" y="110" width="10" height="30" fill="#38bdf8" rx="2"/>
    </g>

    <g class="top-left-1" opacity="0">
      <rect x="80" y="165" width="140" height="90" rx="8" fill="#1a2332" 
            stroke="#3b82f6" stroke-width="2.5"/>
      <!-- Red dots -->
      <circle cx="95" cy="177" r="4" fill="#ef4444" filter="url(#redGlow)" class="blink"/>
      <circle cx="107" cy="177" r="4" fill="#ef4444" filter="url(#redGlow)"/>
      <circle cx="119" cy="177" r="4" fill="#ef4444" filter="url(#redGlow)" class="blink" style="animation-delay: 0.3s"/>
      
      <!-- Activity line -->
      <path d="M90 210 L105 200 L120 215 L135 195 L150 205 L165 200 L180 210 L195 205" 
            fill="none" stroke="#22c55e" stroke-width="2.5"/>
    </g>

    <!-- MAIN CENTER Screen -->
    <rect x="240" y="60" width="720" height="190" rx="12" fill="#0f1729" 
          stroke="#3b82f6" stroke-width="3" class="main-screen"/>

    <!-- TECHSEC Logo Background -->
    <text x="600" y="165" font-family="Arial, sans-serif" font-size="75" font-weight="bold" 
          fill="#1e40af" text-anchor="middle" letter-spacing="6" opacity="0.2" class="breathe">
      TECHSEC
    </text>

    <!-- Grid overlay -->
    <rect x="240" y="60" width="720" height="190" rx="12" fill="url(#scrollGrid)" opacity="0.3"/>

    <!-- Live Line Graph -->
    <path d="M250 155 L295 130 L340 145 L385 120 L430 140 L475 115 L520 130 L565 110 L610 125 L655 105 L700 120 L745 100 L790 115 L835 95 L880 110 L925 90 L950 105" 
          fill="none" stroke="#22c55e" stroke-width="3" stroke-linecap="round" 
          filter="url(#softGlow)" class="line-graph"/>

    <!-- Data points -->
    <circle cx="295" cy="130" r="4" fill="#22c55e" stroke="#0f1729" stroke-width="2"/>
    <circle cx="385" cy="120" r="4" fill="#22c55e" stroke="#0f1729" stroke-width="2"/>
    <circle cx="475" cy="115" r="4" fill="#22c55e" stroke="#0f1729" stroke-width="2"/>
    <circle cx="565" cy="110" r="4" fill="#22c55e" stroke="#0f1729" stroke-width="2"/>
    <circle cx="655" cy="105" r="4" fill="#22c55e" stroke="#0f1729" stroke-width="2"/>
    <circle cx="745" cy="100" r="4" fill="#22c55e" stroke="#0f1729" stroke-width="2"/>
    <circle cx="835" cy="95" r="4" fill="#22c55e" stroke="#0f1729" stroke-width="2"/>
    <circle cx="925" cy="90" r="4" fill="#22c55e" stroke="#0f1729" stroke-width="2"/>

    <!-- Scanning line -->
    <line x1="245" y1="250" x2="955" y2="250" stroke="#60a5fa" stroke-width="2" 
          opacity="0.7" filter="url(#glow)" class="scan"/>

    <!-- Screen glow -->
    <rect x="240" y="60" width="720" height="190" rx="12" fill="url(#screenGlow)" 
          opacity="0.1" class="glow"/>

    <!-- TOP RIGHT Monitors -->
    <g class="top-right-0" opacity="0">
      <rect x="980" y="60" width="140" height="90" rx="8" fill="#1a2332" 
            stroke="#3b82f6" stroke-width="2.5"/>
      <!-- Red dots -->
      <circle cx="995" cy="72" r="4" fill="#ef4444" filter="url(#redGlow)" class="blink" style="animation-delay: 0.2s"/>
      <circle cx="1007" cy="72" r="4" fill="#ef4444" filter="url(#redGlow)"/>
      <circle cx="1019" cy="72" r="4" fill="#ef4444" filter="url(#redGlow)" class="blink" style="animation-delay: 0.5s"/>
      
      <!-- Network icon -->
      <circle cx="1015" cy="105" r="5" fill="#60a5fa"/>
      <circle cx="1035" cy="95" r="5" fill="#60a5fa"/>
      <circle cx="1055" cy="105" r="5" fill="#60a5fa"/>
      <circle cx="1035" cy="115" r="5" fill="#60a5fa"/>
      <line x1="1015" y1="105" x2="1035" y2="95" stroke="#60a5fa" stroke-width="2"/>
      <line x1="1035" y1="95" x2="1055" y2="105" stroke="#60a5fa" stroke-width="2"/>
      <line x1="1015" y1="105" x2="1035" y2="115" stroke="#60a5fa" stroke-width="2"/>
      <line x1="1055" y1="105" x2="1035" y2="115" stroke="#60a5fa" stroke-width="2"/>
    </g>

    <g class="top-right-1" opacity="0">
      <rect x="980" y="165" width="140" height="90" rx="8" fill="#1a2332" 
            stroke="#3b82f6" stroke-width="2.5"/>
      <!-- Red dots -->
      <circle cx="995" cy="177" r="4" fill="#ef4444" filter="url(#redGlow)" class="blink" style="animation-delay: 0.4s"/>
      <circle cx="1007" cy="177" r="4" fill="#ef4444" filter="url(#redGlow)" class="blink" style="animation-delay: 0.1s"/>
      <circle cx="1019" cy="177" r="4" fill="#ef4444" filter="url(#redGlow)"/>
      
      <!-- Shield icon -->
      <path d="M1050 195 L1050 215 Q1050 225 1062 228 Q1074 225 1074 215 L1074 195 Z" 
            fill="#22c55e" opacity="0.3" stroke="#22c55e" stroke-width="2"/>
      <path d="M1056 208 L1060 215 L1068 202" fill="none" stroke="#22c55e" stroke-width="2.5" stroke-linecap="round"/>
    </g>

    <!-- BOTTOM Section - Database, Server, Users (Non-overlapping) -->
    
    <!-- Connection lines from main screen to bottom icons -->
    <line x1="350" y1="250" x2="200" y2="310" stroke="#3b82f6" stroke-width="2" 
          opacity="0.5" stroke-dasharray="5,5" class="connect-line"/>
    <line x1="500" y1="250" x2="450" y2="310" stroke="#3b82f6" stroke-width="2" 
          opacity="0.5" stroke-dasharray="5,5" class="connect-line" style="animation-delay: 0.3s"/>
    <line x1="700" y1="250" x2="700" y2="310" stroke="#3b82f6" stroke-width="2" 
          opacity="0.5" stroke-dasharray="5,5" class="connect-line" style="animation-delay: 0.6s"/>
    <line x1="850" y1="250" x2="950" y2="310" stroke="#3b82f6" stroke-width="2" 
          opacity="0.5" stroke-dasharray="5,5" class="connect-line" style="animation-delay: 0.9s"/>

    <!-- Database Monitor -->
    <g class="bottom-monitor-0" opacity="0">
      <rect x="100" y="310" width="200" height="75" rx="10" fill="#1a2332" 
            stroke="#3b82f6" stroke-width="2.5"/>
      
      <!-- Database icon -->
      <g transform="translate(145, 340)">
        <ellipse cx="0" cy="0" rx="22" ry="7" fill="#2563eb" opacity="0.4"/>
        <rect x="-22" y="0" width="44" height="16" fill="#2563eb" opacity="0.4"/>
        <ellipse cx="0" cy="16" rx="22" ry="7" fill="#2563eb" opacity="0.6"/>
        <path d="M-22 0 Q-22 7 0 7 T22 0" fill="none" stroke="#60a5fa" stroke-width="2"/>
        <path d="M-22 8 Q-22 15 0 15 T22 8" fill="none" stroke="#60a5fa" stroke-width="2"/>
        <path d="M-22 16 Q-22 23 0 23 T22 16" fill="none" stroke="#60a5fa" stroke-width="2"/>
      </g>
      <text x="200" y="345" font-size="12" fill="#60a5fa" font-weight="600">DATABASE</text>
      
      <!-- Red dots -->
      <circle cx="115" cy="323" r="3.5" fill="#ef4444" filter="url(#redGlow)" class="blink"/>
      <circle cx="128" cy="323" r="3.5" fill="#ef4444" filter="url(#redGlow)" class="blink" style="animation-delay: 0.2s"/>
      
      <!-- Activity bar -->
      <rect x="110" y="360" width="180" height="6" fill="#0f1729" rx="2" class="pulse"/>
    </g>

    <!-- Server Monitor -->
    <g class="bottom-monitor-1" opacity="0">
      <rect x="350" y="310" width="200" height="75" rx="10" fill="#1a2332" 
            stroke="#3b82f6" stroke-width="2.5"/>
      
      <!-- Server icon -->
      <g transform="translate(395, 340)">
        <rect x="-25" y="0" width="50" height="11" rx="2" fill="#1e40af" stroke="#60a5fa" stroke-width="2"/>
        <circle cx="-16" cy="5.5" r="2" fill="#22c55e"/>
        <circle cx="-8" cy="5.5" r="2" fill="#22c55e"/>
        <rect x="-25" y="14" width="50" height="11" rx="2" fill="#1e40af" stroke="#60a5fa" stroke-width="2"/>
        <circle cx="-16" cy="19.5" r="2" fill="#fbbf24"/>
        <circle cx="-8" cy="19.5" r="2" fill="#22c55e"/>
        <line x1="0" y1="3" x2="18" y2="3" stroke="#60a5fa" stroke-width="1"/>
        <line x1="0" y1="8" x2="18" y2="8" stroke="#60a5fa" stroke-width="1"/>
        <line x1="0" y1="17" x2="18" y2="17" stroke="#60a5fa" stroke-width="1"/>
        <line x1="0" y1="22" x2="18" y2="22" stroke="#60a5fa" stroke-width="1"/>
      </g>
      <text x="455" y="345" font-size="12" fill="#60a5fa" font-weight="600">SERVER</text>
      
      <!-- Red dots -->
      <circle cx="365" cy="323" r="3.5" fill="#ef4444" filter="url(#redGlow)" class="blink" style="animation-delay: 0.3s"/>
      <circle cx="378" cy="323" r="3.5" fill="#ef4444" filter="url(#redGlow)" class="blink" style="animation-delay: 0.5s"/>
      
      <!-- Activity bar -->
      <rect x="360" y="360" width="180" height="6" fill="#0f1729" rx="2" class="pulse" style="animation-delay: 0.3s"/>
    </g>

    <!-- Users Monitor -->
    <g class="bottom-monitor-2" opacity="0">
      <rect x="600" y="310" width="200" height="75" rx="10" fill="#1a2332" 
            stroke="#3b82f6" stroke-width="2.5"/>
      
      <!-- Users icon -->
      <g transform="translate(645, 345)">
        <circle cx="-10" cy="-3" r="7" fill="#3b82f6" opacity="0.6"/>
        <path d="M-17 5 Q-17 -1 -10 1 Q-3 -1 -3 5 L-5 15 L-15 15 Z" fill="#3b82f6" opacity="0.6"/>
        <circle cx="10" cy="-3" r="7" fill="#60a5fa" opacity="0.8"/>
        <path d="M3 5 Q3 -1 10 1 Q17 -1 17 5 L15 15 L5 15 Z" fill="#60a5fa" opacity="0.8"/>
        <text x="-25" y="25" font-size="11" fill="#60a5fa" font-weight="700">1,247</text>
      </g>
      <text x="715" y="345" font-size="12" fill="#60a5fa" font-weight="600">USERS</text>
      
      <!-- Red dots -->
      <circle cx="615" cy="323" r="3.5" fill="#ef4444" filter="url(#redGlow)" class="blink" style="animation-delay: 0.4s"/>
      <circle cx="628" cy="323" r="3.5" fill="#ef4444" filter="url(#redGlow)" class="blink" style="animation-delay: 0.6s"/>
      
      <!-- Activity bar -->
      <rect x="610" y="360" width="180" height="6" fill="#0f1729" rx="2" class="pulse" style="animation-delay: 0.6s"/>
    </g>

    <!-- Threats/Alerts Monitor -->
    <g class="bottom-monitor-3" opacity="0">
      <rect x="850" y="310" width="200" height="75" rx="10" fill="#1a2332" 
            stroke="#3b82f6" stroke-width="2.5"/>
      
      <!-- Alert/Shield icon -->
      <g transform="translate(895, 345)">
        <!-- Warning triangle -->
        <path d="M0 -8 L8 8 L-8 8 Z" fill="#fbbf24" opacity="0.3" stroke="#fbbf24" stroke-width="2"/>
        <text x="0" y="6" font-size="12" fill="#fbbf24" text-anchor="middle" font-weight="bold">!</text>
        
        <!-- Counter -->
        <text x="-25" y="25" font-size="11" fill="#fbbf24" font-weight="700">24</text>
      </g>
      <text x="960" y="345" font-size="12" fill="#fbbf24" font-weight="600">THREATS</text>
      
      <!-- Red dots -->
      <circle cx="865" cy="323" r="3.5" fill="#ef4444" filter="url(#redGlow)" class="blink" style="animation-delay: 0.5s"/>
      <circle cx="878" cy="323" r="3.5" fill="#ef4444" filter="url(#redGlow)" class="blink" style="animation-delay: 0.7s"/>
      
      <!-- Activity bar with warning color -->
      <rect x="860" y="360" width="180" height="6" fill="#78350f" rx="2" class="pulse" style="animation-delay: 0.9s"/>
    </g>

    <!-- Desk Console -->
    <g class="desk" opacity="0">
      <rect x="200" y="430" width="800" height="65" rx="14" fill="#1e293b" 
            stroke="#334155" stroke-width="3"/>
      <rect x="430" y="448" width="340" height="30" rx="6" fill="#0f172a" 
            stroke="#475569" stroke-width="2"/>
      
      <!-- Keyboard keys -->
      <rect x="450" y="456" width="14" height="14" rx="2" fill="#334155"/>
      <rect x="470" y="456" width="14" height="14" rx="2" fill="#334155"/>
      <rect x="490" y="456" width="14" height="14" rx="2" fill="#334155"/>
    </g>

    <!-- SOC Specialist -->
    <g class="operator" opacity="0" transform="translate(600, 520)">
      <circle cx="0" cy="-12" r="14" fill="#334155" stroke="#475569" stroke-width="2"/>
      <path d="M -20 0 Q -20 -14 0 -8 Q 20 -14 20 0 L 16 30 L -16 30 Z" 
            fill="#334155" stroke="#475569" stroke-width="2"/>
      <!-- Headset -->
      <path d="M-10 -15 Q-15 -15 -15 -10 L-15 -6" stroke="#60a5fa" stroke-width="2" fill="none" stroke-linecap="round"/>
      <path d="M10 -15 Q15 -15 15 -10 L15 -6" stroke="#60a5fa" stroke-width="2" fill="none" stroke-linecap="round"/>
      <line x1="-10" y1="-17" x2="10" y2="-17" stroke="#60a5fa" stroke-width="2" stroke-linecap="round"/>
      <!-- Badge -->
      <rect x="-7" y="4" width="14" height="10" rx="2" fill="#3b82f6" opacity="0.8"/>
      <text x="0" y="12" font-size="7" fill="#ffffff" text-anchor="middle" font-weight="bold">SOC</text>
    </g>

    <!-- Bottom Label -->
    <text x="600" y="565" font-family="Arial, sans-serif" font-size="22" font-weight="600" 
          fill="#60a5fa" text-anchor="middle" letter-spacing="10" class="label" opacity="0">
      SECURITY OPERATIONS CENTER
    </text>

    <!-- Ambient particles -->
    <circle cx="250" cy="150" r="1.5" fill="#60a5fa" opacity="0" class="float"/>
    <circle cx="400" cy="100" r="1.5" fill="#60a5fa" opacity="0" class="float" style="animation-delay: 0.4s"/>
    <circle cx="600" cy="180" r="1.5" fill="#60a5fa" opacity="0" class="float" style="animation-delay: 0.8s"/>
    <circle cx="800" cy="120" r="1.5" fill="#60a5fa" opacity="0" class="float" style="animation-delay: 1.2s"/>
    <circle cx="950" cy="160" r="1.5" fill="#60a5fa" opacity="0" class="float" style="animation-delay: 1.6s"/>
  </g>
</svg>