<?xml version="1.0" encoding="UTF-8"?>
<svg version="1.1" xmlns="http://www.w3.org/2000/svg" width="1689" height="1209">
<path d="M0 0 C19.47 0 38.94 0 59 0 C59 38.94 59 77.88 59 118 C87.05 118 115.1 118 144 118 C143.98839844 109.56566406 143.97679687 101.13132812 143.96484375 92.44140625 C143.95908834 86.43696845 143.95396142 80.43253271 143.94974613 74.42809391 C143.94419437 66.63980059 143.93713478 58.85151791 143.92456055 51.06323242 C143.91355319 44.24221122 143.90772382 37.42120156 143.90512276 30.60017204 C143.90326795 27.99133052 143.8996463 25.38248967 143.89426994 22.77365303 C143.88706357 19.13367448 143.88600889 15.49374425 143.88647461 11.85375977 C143.88287933 10.76331863 143.87928406 9.6728775 143.87557983 8.5493927 C143.8769545 7.56356201 143.87832916 6.57773132 143.87974548 5.56202698 C143.87836279 4.26921232 143.87836279 4.26921232 143.87695217 2.95028019 C144 1 144 1 145 0 C164.47 0 183.94 0 204 0 C204 99 204 198 204 300 C184.2 300 164.4 300 144 300 C144 258.09 144 216.18 144 173 C115.95 173 87.9 173 59 173 C59 214.91 59 256.82 59 300 C39.53 300 20.06 300 0 300 C0 201 0 102 0 0 Z " fill="#014D8C" transform="translate(740,775)"/>
<path d="M0 0 C0.70574158 0.01522705 1.41148315 0.0304541 2.13861084 0.04614258 C4.39747461 0.09924147 6.65564244 0.1650252 8.9140625 0.234375 C10.10343414 0.26887756 10.10343414 0.26887756 11.3168335 0.30407715 C92.64995697 2.74966944 172.45230994 22.8462251 250.5390625 44.296875 C251.57495514 44.58138519 252.61084778 44.86589539 253.6781311 45.1590271 C268.67494475 49.28757788 283.61761385 53.59167864 298.5390625 57.984375 C298.9690361 102.38443086 297.88676276 145.76320058 291.72265625 189.80859375 C291.62527664 190.5122406 291.52789703 191.21588745 291.42756653 191.94085693 C290.96381273 195.23092591 290.44618782 198.48959756 289.84521484 201.75878906 C289.53318115 203.47727051 289.53318115 203.47727051 289.21484375 205.23046875 C289.01930908 206.21845459 288.82377441 207.20644043 288.62231445 208.22436523 C288.4666397 213.38537118 291.68509723 216.92797766 294.5390625 220.984375 C298.1152828 229.76237028 297.56552453 239.62670227 293.98828125 248.3125 C288.97677294 257.55204632 281.58965932 263.45418743 271.625 266.5859375 C261.46472394 268.52666439 251.70919385 267.03931124 243.06640625 261.359375 C235.78212811 255.52222391 230.92920492 247.2620646 229.5390625 237.984375 C228.63469652 228.61027378 230.81622622 220.20806066 236.79296875 212.875 C244.74334363 204.2665404 244.74334363 204.2665404 250.5390625 202.984375 C250.58297119 202.3342041 250.62687988 201.6840332 250.67211914 201.01416016 C251.32778643 192.25850299 252.4691934 183.59499457 253.63757324 174.89718628 C255.81251062 158.61472165 257.614742 142.39244755 258.5390625 125.984375 C258.59545898 125.00710449 258.65185547 124.02983398 258.70996094 123.02294922 C258.87156965 120.13550838 259.02177163 117.24782912 259.1640625 114.359375 C259.2043457 113.54331787 259.24462891 112.72726074 259.28613281 111.88647461 C259.62708835 103.92102025 259.57257964 95.95524766 259.5390625 87.984375 C194.33780972 69.2992689 128.57184945 51.86718762 61.1015625 43.734375 C59.24132446 43.50754028 59.24132446 43.50754028 57.34350586 43.27612305 C43.4237355 41.69252227 29.5525659 40.95082351 15.5390625 39.984375 C15.2090625 64.404375 14.8790625 88.824375 14.5390625 113.984375 C10.60633075 114.77092135 7.74870794 115.08315237 3.83203125 115.01171875 C2.70506836 114.99786133 1.57810547 114.98400391 0.41699219 114.96972656 C-0.80084961 114.95393555 -2.01869141 114.93814453 -3.2734375 114.921875 C-65.59429388 114.59263274 -126.4956528 127.46551687 -186.64453125 142.671875 C-188.01436157 143.01798828 -188.01436157 143.01798828 -189.41186523 143.37109375 C-191.43467344 143.79988839 -191.43467344 143.79988839 -192.4609375 144.984375 C-192.27515779 147.3865453 -192.02044613 149.74156992 -191.7109375 152.12890625 C-191.61790848 152.872509 -191.52487946 153.61611176 -191.42903137 154.38224792 C-191.11508929 156.85501351 -190.78977402 159.32604742 -190.4609375 161.796875 C-190.34801361 162.64870361 -190.23508972 163.50053223 -190.1187439 164.37817383 C-186.482656 191.52138155 -181.05269815 218.00942909 -173.8371582 244.42578125 C-173.62834015 245.19151459 -173.41952209 245.95724792 -173.20437622 246.7461853 C-172.81778438 248.15738846 -172.42782312 249.56767598 -172.03341675 250.97671509 C-170.56661101 256.30258223 -169.55346275 261.52174877 -168.4609375 266.984375 C-181.6609375 266.984375 -194.8609375 266.984375 -208.4609375 266.984375 C-221.14204051 224.30163804 -228.68088465 180.92879883 -233.2109375 136.671875 C-233.33879639 135.43219971 -233.46665527 134.19252441 -233.59838867 132.9152832 C-233.71287354 131.74570068 -233.8273584 130.57611816 -233.9453125 129.37109375 C-234.04553711 128.35233154 -234.14576172 127.33356934 -234.24902344 126.28393555 C-234.51267371 122.17882789 -234.50367113 118.09619231 -234.4609375 113.984375 C-161.65277666 95.49799038 -161.65277666 95.49799038 -129.4609375 88.984375 C-128.75432983 88.84060425 -128.04772217 88.6968335 -127.31970215 88.54870605 C-110.43383132 85.12472151 -93.48576898 82.43763582 -76.3984375 80.234375 C-75.63312714 80.13314331 -74.86781677 80.03191162 -74.07931519 79.9276123 C-57.56212628 77.76894519 -41.14085491 77.02686984 -24.4609375 75.984375 C-24.4609375 51.234375 -24.4609375 26.484375 -24.4609375 0.984375 C-6.41027817 -0.14379121 -6.41027817 -0.14379121 0 0 Z M253.5390625 224.984375 C251.13008729 227.95544442 250.57393379 229.6589096 250.1640625 233.484375 C250.69250996 238.41655125 252.36583058 240.70762261 255.6640625 244.296875 C259.67657601 246.65204597 262.99220181 246.78487864 267.5390625 245.984375 C271.64228762 243.89546039 273.81726189 242.21907379 275.5390625 237.984375 C276.18814454 234.22653162 276.38009517 230.56926924 274.55859375 227.13671875 C272.3105861 224.32152148 270.01138845 222.00564734 266.5390625 220.984375 C260.85278315 220.35256618 257.91327991 221.30605582 253.5390625 224.984375 Z " fill="#2183BF" transform="translate(849.4609375,9.015625)"/>
<path d="M0 0 C4.08326934 3.57776567 8.0599063 7.26578507 12 11 C11.44079182 14.6110414 10.25375508 15.99048009 7.44921875 18.26953125 C3.07974152 21.92324279 -1.05648187 25.76798384 -5.1875 29.6875 C-6.67277085 31.09027399 -8.15845262 32.49261303 -9.64453125 33.89453125 C-10.74015381 34.92827881 -10.74015381 34.92827881 -11.85791016 35.98291016 C-15.01881501 38.95936284 -18.19150506 41.92273167 -21.375 44.875 C-21.90375732 45.36830811 -22.43251465 45.86161621 -22.97729492 46.36987305 C-25.24255372 48.46515356 -27.42412664 50.2827511 -30 52 C-30.55945313 51.45472656 -31.11890625 50.90945313 -31.6953125 50.34765625 C-50.73439177 32.44112671 -74.95337607 22.06640032 -101.3359375 22.81640625 C-124.52755003 24.41465521 -144.57438693 31.1252101 -162 47 C-163.04027344 47.91845703 -163.04027344 47.91845703 -164.1015625 48.85546875 C-180.13709789 63.83687532 -190.91179818 86.10431354 -192.17700195 108.07348633 C-192.61806989 129.8732464 -192.61806989 129.8732464 -188 151 C-187.67854004 151.96848877 -187.67854004 151.96848877 -187.35058594 152.95654297 C-184.22117912 162.17849945 -179.89906196 170.21651548 -174 178 C-173.59652344 178.53367187 -173.19304687 179.06734375 -172.77734375 179.6171875 C-159.93689526 196.34511123 -142.60125044 208.03269342 -122 213 C-121.10796875 213.22429687 -120.2159375 213.44859375 -119.296875 213.6796875 C-93.97521493 218.96106232 -67.77567691 213.57269577 -46 200 C-40.63524147 196.03182442 -35.66369799 191.77140464 -31 187 C-27.72306675 188.45395462 -25.38588974 190.2681956 -22.75 192.6875 C-21.87472656 193.48929688 -20.99945312 194.29109375 -20.09765625 195.1171875 C-15.07072338 199.78422449 -10.07164719 204.4811086 -5.07421875 209.1796875 C0.58149674 214.49177481 6.2884412 219.74810432 12 225 C4.21422129 242.61630739 -22.18228002 255.54802032 -39.05419922 262.20507812 C-78.61624182 276.79778661 -121.95384419 278.77066812 -161 261 C-178.81020793 252.59213534 -193.85642024 242.63845191 -208 229 C-208.77859375 228.28457031 -209.5571875 227.56914063 -210.359375 226.83203125 C-236.65500176 201.98173149 -252.16321059 162.53536364 -253.28125 126.8046875 C-254.1023944 81.67595988 -239.34478949 41.78479971 -208.05859375 9.0625 C-153.50753947 -46.44012675 -59.01539803 -49.98866743 0 0 Z " fill="#014D8C" transform="translate(694,806)"/>
<path d="M0 0 C4.08564154 3.58254491 7.88241803 7.45301539 11.60595703 11.40820312 C6.46628533 17.86950469 0.45245339 23.28477647 -5.64306641 28.81445312 C-7.92104274 30.88788167 -10.1806738 32.9806936 -12.43994141 35.07446289 C-18.37535752 40.57469754 -24.36090565 46.01515036 -30.39404297 51.40820312 C-31.30154297 50.60382813 -32.20904297 49.79945313 -33.14404297 48.97070312 C-54.82501621 30.57865996 -79.02662696 20.45686343 -107.99951172 22.68554688 C-127.59056477 24.54271381 -145.45766105 31.39298627 -160.39404297 44.40820312 C-160.98185547 44.85292969 -161.56966797 45.29765625 -162.17529297 45.75585938 C-179.24444842 58.92004294 -188.87997163 81.02110805 -192.70654297 101.65820312 C-196.15749167 128.46941995 -191.21546928 156.43175469 -174.51904297 178.22070312 C-158.43779125 198.48181 -137.11771146 210.83863336 -111.39404297 214.40820312 C-107.63844734 214.68552126 -103.90892473 214.74282497 -100.14404297 214.72070312 C-98.64079468 214.7133313 -98.64079468 214.7133313 -97.10717773 214.70581055 C-71.10338201 214.29822754 -50.20009199 203.55657609 -31.39404297 186.40820312 C-28.38722497 187.7481981 -26.39641688 189.20665604 -24.14404297 191.59570312 C-21.77681923 194.09769455 -19.29535706 196.38852682 -16.69482422 198.64257812 C-11.53716899 203.11996565 -6.60894112 207.82830002 -1.66162109 212.53515625 C2.65843934 216.62722441 7.05459305 220.57453123 11.60595703 224.40820312 C2.90535019 243.21642924 -27.0048726 256.85576934 -45.26342773 263.65722656 C-84.97925148 277.78127617 -127.66672643 276.31780122 -166.01904297 258.65820312 C-178.91390099 252.48843603 -190.64248456 244.83468648 -201.39404297 235.40820312 C-202.21001953 234.725 -203.02599609 234.04179688 -203.86669922 233.33789062 C-233.58082339 207.81482359 -250.39916355 169.49679138 -254.14404297 130.97070312 C-254.25104439 129.11775165 -254.33428561 127.26327928 -254.39404297 125.40820312 C-254.43400391 124.3640625 -254.47396484 123.31992187 -254.51513672 122.24414062 C-255.33468826 80.30238543 -238.96096652 39.86548445 -210.03295898 9.64013672 C-154.4053275 -46.88622217 -60.57555451 -51.0450006 0 0 Z " fill="#014D8C" transform="translate(1677.39404296875,806.591796875)"/>
<path d="M0 0 C3.56049931 2.89326519 7.03639516 5.86426052 10.41796875 8.96484375 C9.83212625 13.01772136 7.73508791 15.42740455 5.23046875 18.58984375 C4.32154766 19.74604114 3.41269761 20.90229438 2.50390625 22.05859375 C2.00987305 22.6825 1.51583984 23.30640625 1.00683594 23.94921875 C-0.68930205 26.10092668 -2.36775454 28.26556029 -4.04296875 30.43359375 C-10.44029608 38.70910743 -16.88856265 46.92559839 -23.58203125 54.96484375 C-26.69304949 53.52573327 -29.27956206 51.76635525 -32.01953125 49.71484375 C-44.99818654 40.55344002 -61.13689454 34.67861244 -77.1953125 36.21484375 C-85.3604998 37.75182018 -90.84678375 42.30314463 -95.58203125 48.96484375 C-98.61185525 54.88677248 -98.83727974 63.02439876 -96.82421875 69.34375 C-88.26930491 87.09351217 -65.71119582 96.21649814 -49.26953125 105.08984375 C-22.46311036 119.59085401 4.56582376 138.43678103 14.63671875 168.6171875 C21.54596542 192.13330206 20.56267532 217.90165863 9.41796875 239.96484375 C-3.37571108 262.15070916 -24.01629781 276.16745152 -48.43359375 283.15625 C-81.79301611 291.72374433 -117.2373335 285.8003922 -146.77758789 268.46630859 C-166.8223365 256.25604343 -166.8223365 256.25604343 -170.58203125 246.96484375 C-169.97359375 246.19785156 -169.36515625 245.43085937 -168.73828125 244.640625 C-162.82178296 237.15813018 -156.99145151 229.61241093 -151.20703125 222.02734375 C-150.52962891 221.14022705 -149.85222656 220.25311035 -149.15429688 219.33911133 C-145.54855114 214.60187972 -142.01164867 209.8311928 -138.58203125 204.96484375 C-134.56427667 205.82263327 -131.68639642 207.7443545 -128.33203125 210.02734375 C-109.29395461 222.55889552 -87.68928162 231.38735445 -64.4609375 227.43359375 C-55.82772923 225.01576982 -50.41220091 220.71548569 -45.83203125 213.02734375 C-43.287642 206.55328666 -43.40185736 198.5927857 -45.53125 192.046875 C-52.95024807 176.57697681 -67.60336068 169.14589059 -82.06689453 161.33447266 C-113.22350689 144.36800058 -145.39413782 125.77511728 -157.609375 90.57421875 C-162.47734439 72.50994679 -162.72969799 52.72027597 -156.58203125 34.96484375 C-156.23140625 33.91554688 -155.88078125 32.86625 -155.51953125 31.78515625 C-147.74963802 11.01148338 -130.9436223 -5.27146093 -111.04370117 -14.40283203 C-75.68326099 -29.77208166 -30.5192596 -23.31652965 0 0 Z " fill="#014D8C" transform="translate(1156.58203125,793.03515625)"/>
<path d="M0 0 C7.59564419 5.17426236 12.3292253 12.74054952 14.1484375 21.6953125 C15.6324136 31.11605964 13.72364905 39.46942041 8.5078125 47.42578125 C2.86076133 54.76319142 -4.00342188 58.88543369 -12.81640625 61.46484375 C-20.62711843 62.26594243 -28.8501706 62.06657588 -35.36328125 57.109375 C-36.0490625 56.54605469 -36.73484375 55.98273437 -37.44140625 55.40234375 C-41.49328732 52.57716619 -43.89779452 52.52968966 -48.73046875 53.28515625 C-49.37812698 53.38464066 -50.02578522 53.48412506 -50.69306946 53.58662415 C-59.99421174 55.07027988 -69.22393157 56.97608823 -78.44140625 58.90234375 C-79.45669403 59.11359894 -80.47198181 59.32485413 -81.51803589 59.54251099 C-119.033093 67.39325556 -156.30794716 76.78286152 -193.08813477 87.56616211 C-193.82918961 87.78199951 -194.57024445 87.99783691 -195.33375549 88.22021484 C-197.2813611 88.7891824 -199.22672513 89.36580799 -201.171875 89.94311523 C-204.25390625 90.71484375 -204.25390625 90.71484375 -208.25390625 90.71484375 C-205.55643545 160.4471274 -196.34938638 226.72990998 -176.25390625 293.71484375 C-137.14890625 294.20984375 -137.14890625 294.20984375 -97.25390625 294.71484375 C-91.80890625 308.57484375 -91.80890625 308.57484375 -86.25390625 322.71484375 C-83.82855887 328.35311408 -81.39097501 333.9597822 -78.81640625 339.52734375 C-78.50275116 340.21064758 -78.18909607 340.89395142 -77.86593628 341.59796143 C-64.69318431 370.26755961 -49.29800528 397.81072474 -31.25390625 423.71484375 C-30.81884766 424.34132813 -30.38378906 424.9678125 -29.93554688 425.61328125 C-18.17066809 442.48636006 -5.2254101 458.36714492 8.21972656 473.9230957 C8.72342773 474.51437256 9.22712891 475.10564941 9.74609375 475.71484375 C10.6187085 476.52091064 11.49132324 477.32697754 12.39038086 478.1574707 C16.16063554 482.72653649 15.36317777 488.26284711 15.234375 493.89453125 C15.22730026 495.06243195 15.22022552 496.23033264 15.2129364 497.43362427 C15.18501392 501.15302368 15.12227427 504.87090158 15.05859375 508.58984375 C15.03350834 511.11586363 15.0106956 513.64190718 14.99023438 516.16796875 C14.935194 522.35077696 14.85158697 528.53270164 14.74609375 534.71484375 C11.64491208 533.22783626 9.39442603 531.66564671 6.8828125 529.30078125 C6.16029297 528.62144531 5.43777344 527.94210937 4.69335938 527.2421875 C3.94763672 526.53191406 3.20191406 525.82164062 2.43359375 525.08984375 C1.69947266 524.40277344 0.96535156 523.71570313 0.20898438 523.0078125 C-4.00437045 519.02250971 -7.9504876 514.92056386 -11.69848633 510.49389648 C-13.26517799 508.7019514 -14.91159773 507.04936536 -16.62890625 505.40234375 C-20.4168859 501.68215791 -23.68265907 497.59354809 -27.0078125 493.4609375 C-28.98755562 491.04048635 -31.02419507 488.71365234 -33.12890625 486.40234375 C-69.49885056 445.79999961 -97.51336688 395.57574429 -119.44140625 345.96484375 C-119.92359619 344.87453857 -120.40578613 343.7842334 -120.90258789 342.66088867 C-124.25390625 334.9722087 -124.25390625 334.9722087 -124.25390625 332.71484375 C-150.65390625 332.71484375 -177.05390625 332.71484375 -204.25390625 332.71484375 C-234.42905894 257.27696202 -247.04099745 172.71580861 -247.44140625 87.46484375 C-247.4424939 86.78819672 -247.44358154 86.11154968 -247.44470215 85.41439819 C-247.44323398 77.4604795 -247.14246018 69.62082643 -246.25390625 61.71484375 C-184.01810273 43.57982362 -121.43698087 26.51953109 -57.64532471 14.76716614 C-54.76310423 14.2298811 -52.0401386 13.64358787 -49.25390625 12.71484375 C-48.44953125 11.44640625 -48.44953125 11.44640625 -47.62890625 10.15234375 C-42.98134359 2.87408525 -36.34393638 -2.09733652 -28.140625 -4.66015625 C-17.94255383 -6.86812836 -9.00955802 -5.13716567 0 0 Z M-29.25390625 19.71484375 C-31.3294991 23.33039259 -32.29596963 25.66325916 -32.12890625 29.83984375 C-30.85929301 34.0114301 -29.44904345 36.72458721 -26.06640625 39.52734375 C-22.39100325 41.07918057 -19.14646474 41.39413337 -15.25390625 40.71484375 C-11.56084817 38.90315488 -9.68025024 37.31997716 -7.31640625 33.96484375 C-6.00420111 29.9510398 -5.93373598 26.69116498 -7.25390625 22.71484375 C-9.08559139 19.75989525 -11.09056535 17.2965142 -14.25390625 15.71484375 C-20.32617506 14.97402695 -24.60277283 15.39593415 -29.25390625 19.71484375 Z " fill="#52ADDE" transform="translate(787.25390625,5.28515625)"/>
<path d="M0 0 C8.03900989 0 15.61827886 0.58550403 23.5625 1.5625 C24.62452637 1.69212631 24.62452637 1.69212631 25.70800781 1.82437134 C70.15039116 7.31511566 113.65023119 17.50821814 157 28.5 C157.7188802 28.68205364 158.43776039 28.86410728 159.17842484 29.0516777 C163.33148151 30.10381407 167.48330353 31.16060674 171.63333321 32.22462273 C173.53117942 32.7107277 175.42976125 33.19395781 177.32835388 33.67713928 C179.0240023 34.11442604 179.0240023 34.11442604 180.75390625 34.56054688 C182.24386108 34.94285461 182.24386108 34.94285461 183.76391602 35.33288574 C186 36 186 36 187 37 C186.99485318 38.44682809 186.91269222 39.89343483 186.80078125 41.3359375 C186.6920166 42.75108643 186.6920166 42.75108643 186.58105469 44.19482422 C186.49243164 45.24428223 186.40380859 46.29374023 186.3125 47.375 C186.22000977 48.4798877 186.12751953 49.58477539 186.03222656 50.72314453 C182.15150231 95.3269894 174.79372443 138.87247738 162.875 182.0625 C162.56604797 183.18674881 162.56604797 183.18674881 162.25085449 184.33370972 C161.65059658 186.50699222 161.04183275 188.67769496 160.4296875 190.84765625 C159.90737549 192.7040271 159.90737549 192.7040271 159.37451172 194.59790039 C157.43968764 200.79449239 155.18337239 206.8865573 153 213 C178.74 213 204.48 213 231 213 C228.60085224 222.59659103 225.89397424 231.80688095 222.6875 241.125 C222.42911346 241.8782254 222.17072693 242.63145081 221.9045105 243.40750122 C205.68718687 290.47341673 184.06732677 335.61592149 158 378 C157.38737305 378.99676758 156.77474609 379.99353516 156.14355469 381.02050781 C148.7751751 392.94287241 141.01179154 404.48729049 132.66503906 415.74511719 C130.91579061 418.11404075 129.1869608 420.49692229 127.4609375 422.8828125 C121.41860861 431.20756145 115.25544596 439.32071074 108.51171875 447.08984375 C106.11279885 449.86930771 103.79986101 452.70090303 101.5 455.5625 C97.37361611 460.6354379 93.00114724 465.43662623 88.5546875 470.2265625 C85.92511855 473.08129332 83.39431569 476.00063611 80.89453125 478.96875 C79 481 79 481 76.19921875 483.40625 C70.65952314 488.21170395 67.44068068 491.76447182 66.6875 499.4375 C66.55794922 501.33822266 66.55794922 501.33822266 66.42578125 503.27734375 C65.54061112 511.01649174 61.83352 517.68079553 56.1875 523 C47.78856486 529.6095267 38.53967673 531.97184032 28 531 C18.73580661 528.80320617 11.27491433 524.51486256 5.6875 516.75 C0.66233779 508.58924612 -1.32382319 499.97213545 0.46875 490.53125 C2.74539402 481.74990879 7.1799299 474.43223043 14.75 469.28515625 C22.59009335 464.80704737 29.25824398 463.55832646 38.25 464.25 C41.13804454 464.30625305 41.13804454 464.30625305 42.75 462 C43.1625 461.34 43.575 460.68 44 460 C44.66 460 45.32 460 46 460 C46.22300781 459.44828125 46.44601562 458.8965625 46.67578125 458.328125 C48.41554097 455.2694324 50.65764482 453.1926188 53.1875 450.75 C57.69085856 446.33851695 61.93667747 441.81830313 66 437 C66.85464844 435.9996875 67.70929688 434.999375 68.58984375 433.96875 C98.10825093 399.36573439 123.19827064 361.58168219 144.65087891 321.50585938 C145.83777615 319.3013148 147.04391833 317.10943574 148.26171875 314.921875 C153.32936438 305.72848209 157.73059972 296.24345228 162.0625 286.6875 C162.34832947 286.0595755 162.63415894 285.431651 162.9286499 284.78469849 C167.98362671 273.64952705 172.45121454 262.37196365 177 251 C150.6 251 124.2 251 97 251 C100.35192308 240.94423077 100.35192308 240.94423077 102.05859375 236.91796875 C120.34053593 192.96994823 132.85532579 146.96586551 140.375 100 C140.50255676 99.21352081 140.63011353 98.42704163 140.76153564 97.61672974 C142.45390834 87.08590401 143.52998689 76.65605004 144 66 C98.88116429 54.61764458 53.58136565 43.85407077 7.16796875 39.359375 C4 39 4 39 0 38 C0 25.46 0 12.92 0 0 Z M23.25 489.5 C20.39382088 492.92741494 20.70777018 496.76266759 21 501 C22.80992072 505.09613637 25.1359204 507.73195328 29 510 C33.29545146 510.70289206 36.84841928 510.47565291 40.875 508.8125 C43.98201544 506.1623986 45.62379134 504.00143008 46.390625 499.921875 C46.73570345 495.3103721 46.16557139 492.60035496 43.1875 489 C40.22126536 485.83601638 38.01426304 485.0751306 33.625 484.75 C28.99431308 485.06935772 26.70171386 486.54138812 23.25 489.5 Z " fill="#52AEDE" transform="translate(887,87)"/>
<path d="M0 0 C8.00191702 4.86679536 13.42156598 11.56499486 16.34375 20.44921875 C16.9458879 23.6624967 16.93291766 26.7879482 16.94921875 30.0546875 C16.96339844 31.34117187 16.97757813 32.62765625 16.9921875 33.953125 C16.76171875 37.6796875 16.76171875 37.6796875 15.6875 40.84375 C14.40016781 44.78722329 14.91530194 46.89260619 16.67382812 50.60546875 C17.90551268 52.99252005 19.19718346 55.33723467 20.51171875 57.6796875 C21.00124023 58.55834473 21.49076172 59.43700195 21.99511719 60.34228516 C38.80881932 90.23036449 58.47546241 118.56006155 80.34667969 144.96044922 C81.6067454 146.49139862 82.84591344 148.03949397 84.08203125 149.58984375 C88.98701205 155.73464442 94.22183349 161.49969739 99.62670898 167.20336914 C102.53228472 170.27117458 105.37584527 173.36779083 108.1328125 176.5703125 C112.12302358 181.16205457 116.38833394 185.45312996 120.69921875 189.7421875 C121.45912109 190.50595703 122.21902344 191.26972656 123.00195312 192.05664062 C127.20667221 196.2541783 131.49709354 200.28661746 135.99975586 204.1628418 C138.23110568 206.08377521 140.40123442 208.06817643 142.57421875 210.0546875 C152.27746723 218.7890791 162.60944519 226.73871563 172.91796875 234.73828125 C173.58634766 235.25704834 174.25472656 235.77581543 174.94335938 236.31030273 C176.508921 237.48930853 178.1310195 238.59255466 179.76171875 239.6796875 C180.25671875 193.1496875 180.25671875 193.1496875 180.76171875 145.6796875 C183.91072375 147.25419 185.49447021 148.1574496 187.890625 150.46484375 C188.45072266 150.99529297 189.01082031 151.52574219 189.58789062 152.07226562 C190.7494236 153.18937552 191.91088143 154.30656355 193.07226562 155.42382812 C193.63107422 155.95298828 194.18988281 156.48214844 194.765625 157.02734375 C195.26908447 157.51211182 195.77254395 157.99687988 196.29125977 158.49633789 C197.87388378 159.91063946 197.87388378 159.91063946 200.76171875 160.6796875 C201.7053125 159.82697266 201.7053125 159.82697266 202.66796875 158.95703125 C206.63434671 155.37892824 210.60072512 151.8042516 214.63671875 148.3046875 C225.82601791 138.5781462 225.82601791 138.5781462 235.9296875 127.76171875 C238.21302392 125.16679697 240.66557114 122.78364858 243.13671875 120.3671875 C247.57480496 116.00069548 251.58306636 111.41269326 255.4609375 106.54296875 C257.49148298 104.0159911 259.57675265 101.548864 261.69458008 99.0949707 C268.4497532 91.2472072 274.68052067 83.05732095 280.76171875 74.6796875 C281.31230957 73.92300781 281.86290039 73.16632813 282.43017578 72.38671875 C299.69058431 48.53848087 314.6022623 22.99860039 327.76171875 -3.3203125 C341.95171875 -3.3203125 356.14171875 -3.3203125 370.76171875 -3.3203125 C369.24682006 1.22438358 367.60687943 5.2674128 365.44921875 9.4921875 C364.93633301 10.50394043 364.93633301 10.50394043 364.41308594 11.53613281 C363.63703104 13.06194708 362.85838463 14.58644506 362.07763672 16.10986328 C361.15127095 17.91894048 360.22877011 19.72999939 359.30908203 21.54248047 C340.40797283 58.76469013 317.57629939 93.65603803 290.76171875 125.6796875 C290.25398926 126.28651367 289.74625977 126.89333984 289.22314453 127.51855469 C278.07458694 140.7908176 266.24492559 153.28739316 254.01171875 165.5546875 C253.46810699 166.10097809 252.92449524 166.64726868 252.3644104 167.21011353 C242.46068106 177.15080474 242.46068106 177.15080474 237.80859375 181.25 C236.95600731 182.01342209 236.95600731 182.01342209 236.0861969 182.79226685 C233.76171875 184.6796875 233.76171875 184.6796875 230.56272888 186.68423462 C226.1542739 189.59924311 221.77279145 192.64008727 220.0449791 197.83443069 C219.14700891 203.08874645 219.29704782 208.35704689 219.50768471 213.66678619 C219.62716425 216.6875301 219.66583331 219.70038364 219.68534851 222.72332764 C219.7420369 229.12777168 219.9054275 235.52738489 220.07421875 241.9296875 C220.25648409 249.36750451 220.39451474 256.80329866 220.4564724 264.24312592 C220.49934121 267.21218521 220.60454489 270.17465028 220.71369934 273.14190674 C220.99166581 286.10980408 220.99166581 286.10980408 217.63827515 290.39001465 C215.07014128 292.21102867 212.6486752 293.44601088 209.76171875 294.6796875 C208.28278409 295.64895959 206.81998479 296.64407919 205.38671875 297.6796875 C202.313748 299.7719229 202.313748 299.7719229 199.91040039 299.37036133 C197.5747829 298.6195987 195.70246262 297.63186076 193.59375 296.37890625 C192.79163086 295.90259766 191.98951172 295.42628906 191.16308594 294.93554688 C190.30875977 294.41798828 189.45443359 293.90042969 188.57421875 293.3671875 C187.68508789 292.83029297 186.79595703 292.29339844 185.87988281 291.74023438 C177.21552774 286.44586553 168.93421304 280.69916034 160.76171875 274.6796875 C159.74102295 273.92921143 159.74102295 273.92921143 158.69970703 273.16357422 C154.02076851 269.71178912 149.38012557 266.2119708 144.76171875 262.6796875 C144.16262695 262.22239258 143.56353516 261.76509766 142.94628906 261.29394531 C129.51518259 251.00392496 116.8531386 239.86449545 104.50537109 228.30566406 C102.60516399 226.53369832 100.69360994 224.77446455 98.78125 223.015625 C91.56332098 216.3501668 84.63629269 209.5816775 78.0859375 202.2578125 C76.11782461 200.07469568 74.10986978 197.98615341 72.01171875 195.9296875 C68.38368085 192.35286896 65.07858706 188.5441223 61.76171875 184.6796875 C60.8781722 183.67137697 59.99401109 182.66360476 59.109375 181.65625 C51.77501115 173.25866767 44.95391927 164.5412254 38.24755859 155.63720703 C36.94203698 153.91724774 35.61974398 152.21386207 34.28125 150.51953125 C16.90773846 128.43159949 2.05981729 104.61603299 -12.01171875 80.3359375 C-12.55070801 79.40740967 -13.08969727 78.47888184 -13.64501953 77.5222168 C-14.73881319 75.57078567 -15.78728459 73.59346606 -16.79638672 71.59692383 C-17.29799316 70.60974365 -17.79959961 69.62256348 -18.31640625 68.60546875 C-18.75114258 67.71512939 -19.18587891 66.82479004 -19.63378906 65.9074707 C-22.1773797 62.37578102 -25.43854916 61.70032048 -29.4921875 60.55078125 C-38.34607548 57.74222219 -43.76899508 50.19252084 -48.05078125 42.3671875 C-51.29591592 32.29019036 -50.69643202 22.68190582 -45.98046875 13.1328125 C-36.16431408 -2.85196396 -16.85414176 -7.96577595 0 0 Z M-27.23828125 22.6796875 C-29.52154122 26.35275789 -29.50753891 29.58645463 -28.84765625 33.75 C-27.62215578 37.6307515 -24.72814306 39.79191417 -21.34375 41.80859375 C-17.56428533 43.37226837 -14.07597636 42.92793435 -10.23828125 41.6796875 C-6.63768328 38.96056372 -4.67107431 35.90169144 -3.17578125 31.6796875 C-3.28164452 26.59825058 -5.04952413 23.08458228 -8.30078125 19.2421875 C-15.47724739 15.42491828 -21.97422237 16.75762126 -27.23828125 22.6796875 Z " fill="#2183BF" transform="translate(644.23828125,365.3203125)"/>
<path d="M0 0 C25.92910755 -0.02254434 51.8582072 -0.0409776 77.78732204 -0.05181217 C89.82574755 -0.05697581 101.86416656 -0.06401979 113.90258789 -0.07543945 C124.39117644 -0.08538423 134.87976029 -0.09185293 145.36835343 -0.09408849 C150.92566864 -0.09539595 156.48297038 -0.09848402 162.0402813 -0.10573006 C167.2645276 -0.11248702 172.4887548 -0.11461763 177.71300507 -0.11310768 C179.63636694 -0.11338416 181.55972942 -0.11539119 183.48308754 -0.11920547 C186.09706095 -0.12413767 188.71096101 -0.12300006 191.32493591 -0.12025452 C192.09632178 -0.12316736 192.86770765 -0.1260802 193.66246885 -0.12908131 C198.88587879 -0.11412121 198.88587879 -0.11412121 200 1 C200.0935919 2.71865409 200.11744611 4.44115744 200.11352539 6.16235352 C200.11340454 7.27888306 200.11328369 8.3954126 200.11315918 9.54577637 C200.10804321 10.72820923 200.10292725 11.91064209 200.09765625 13.12890625 C200.09664917 14.20910034 200.09564209 15.28929443 200.09460449 16.40222168 C200.08935374 20.45565851 200.07539263 24.50908027 200.0625 28.5625 C200.041875 37.616875 200.02125 46.67125 200 56 C176.9 56 153.8 56 130 56 C130 136.52 130 217.04 130 300 C110.2 300 90.4 300 70 300 C70 219.48 70 138.96 70 56 C46.9 56 23.8 56 0 56 C0 37.52 0 19.04 0 0 Z " fill="#014D8C" transform="translate(0,775)"/>
<path d="M0 0 C2.00553358 0.04980919 2.00553358 0.04980919 4.19140625 -0.35546875 C5.040979 -0.48195801 5.89055176 -0.60844727 6.76586914 -0.73876953 C7.68875732 -0.88685059 8.61164551 -1.03493164 9.5625 -1.1875 C11.55171261 -1.48297544 13.54131542 -1.77583284 15.53125 -2.06640625 C16.58183594 -2.22125488 17.63242187 -2.37610352 18.71484375 -2.53564453 C24.31950395 -3.32786092 29.93935537 -3.97939938 35.5625 -4.625 C37.12883179 -4.80905396 37.12883179 -4.80905396 38.72680664 -4.99682617 C82.96928615 -10.076583 127.72157918 -8.43205014 171.625 -1.18237305 C172.67042969 -1.01390869 173.71585938 -0.84544434 174.79296875 -0.671875 C176.16231567 -0.44129395 176.16231567 -0.44129395 177.55932617 -0.20605469 C181.85851033 0.15690534 184.40102316 -1.14999003 187.9375 -3.4375 C196.03207308 -8.00980401 205.35636895 -8.95606798 214.37109375 -6.8828125 C224.24109013 -3.56837092 231.68472083 2.98669864 236.375 12.25 C239.61975798 20.36189494 240.13553218 29.7927084 237 38 C232.60473154 47.33814414 226.1733054 54.40567784 216.484375 58.28125 C207.63486829 60.84148465 198.81725855 60.73806151 190.46875 56.80859375 C182.51917214 52.41477587 176.4505967 46.52500361 173 38 C173 37.34 173 36.68 173 36 C172.07123047 35.94521484 171.14246094 35.89042969 170.18554688 35.83398438 C160.11398136 35.22403728 150.05538525 34.49600143 139.99707031 33.69775391 C137.47478615 33.49800321 134.95225179 33.30164656 132.4296875 33.10546875 C130.79685899 32.97676542 129.1640459 32.84786635 127.53125 32.71875 C126.79152954 32.661427 126.05180908 32.604104 125.28967285 32.54504395 C124.58113159 32.48828491 123.87259033 32.43152588 123.14257812 32.37304688 C122.53353638 32.32498901 121.92449463 32.27693115 121.29699707 32.22741699 C119.14417308 32.01427403 117.00272588 31.75614934 114.85643768 31.48578644 C113.58381325 31.32547691 112.31118881 31.16516739 111 31 C110.96709196 59.3028687 110.9740297 87.60548456 111.02846622 115.90832615 C111.05281177 129.04971473 111.06409444 142.1908726 111.04467773 155.33227539 C111.02778813 166.78570411 111.03535446 178.23881018 111.07234758 189.69219631 C111.09108176 195.757373 111.09752882 201.82200394 111.07469368 207.88717842 C111.05358626 213.59605874 111.06517906 219.30393894 111.10184479 225.01273155 C111.10953787 227.10771914 111.10528733 229.20278994 111.08818626 231.29772186 C111.06660852 234.16037022 111.08810809 237.01961825 111.12025452 239.88209534 C111.0955061 241.12385059 111.0955061 241.12385059 111.07025772 242.39069182 C111.17804003 247.17521729 112.00868842 249.48693375 115.44609737 252.90141201 C116.06763445 253.43755483 116.68917152 253.97369765 117.32954305 254.52608722 C119.51149158 256.45131003 120.65264814 258.50326601 121.875 261.125 C122.26429688 261.93195313 122.65359375 262.73890625 123.0546875 263.5703125 C126.52420199 272.48782495 125.78633031 282.31706207 122 291 C117.34162273 298.93335765 110.70095795 305.14112692 102.0078125 308.3046875 C93.58824681 310.25102866 83.67588563 310.48862869 75.94921875 306.25 C75.30597656 305.8375 74.66273438 305.425 74 305 C73.30519531 304.5875 72.61039063 304.175 71.89453125 303.75 C64.51028587 298.87335014 60.32872541 291.42575193 58 283 C56.76594759 270.88906708 59.15789985 262.14308985 66.53515625 252.59375 C68 251 68 251 71 249 C71.30647171 246.09213948 71.41548231 243.39499544 71.39872742 240.48336792 C71.40537424 239.59144466 71.41202107 238.69952139 71.41886932 237.78057015 C71.43761061 234.77400956 71.43488658 231.76784303 71.43237305 228.76123047 C71.44138342 226.61317375 71.45170883 224.46512221 71.46325684 222.31707764 C71.49093811 216.47026169 71.50012642 210.62354299 71.50611091 204.77666998 C71.51546572 198.67204749 71.54166664 192.56749848 71.56611633 186.46292114 C71.60986489 174.89614733 71.63836047 163.3293877 71.66143972 151.7625562 C71.68844669 138.59705919 71.73236089 125.4316358 71.77772844 112.26619124 C71.87069437 85.17750069 71.9423203 58.08878704 72 31 C65.7415103 31.52898406 59.48340137 32.06221922 53.22558594 32.59912109 C51.10393685 32.78058215 48.98219407 32.96095157 46.86035156 33.14013672 C39.90374564 33.72806517 32.95107434 34.35007895 26 35 C25.15254211 35.07566193 24.30508423 35.15132385 23.4319458 35.22927856 C21.17371467 35.43559916 18.91915512 35.66445387 16.6640625 35.90234375 C15.4260791 36.02601318 14.1880957 36.14968262 12.91259766 36.27709961 C9.94788691 36.73553745 9.94788691 36.73553745 8.31347656 38.77758789 C7.31545219 40.68742103 7.31545219 40.68742103 6.6953125 42.84375 C4.81672989 48.66946685 -0.5226017 52.96538231 -5.67578125 55.9296875 C-14.70984567 60.08991212 -23.85199243 61.14672305 -33.40625 58.27734375 C-42.65539914 54.61886181 -49.39698244 47.72150695 -54 39 C-57.33138912 30.79965755 -56.81341388 21.6540096 -54.0390625 13.3828125 C-50.02481211 4.17720071 -42.38495631 -2.55158631 -33.171875 -6.24609375 C-21.53992207 -10.28380403 -9.84907131 -6.56604754 0 0 Z M-33.25 18.3125 C-35.28793855 21.44219135 -35.92528844 23.26442195 -36 27 C-34.47775568 31.64685108 -32.75695137 34.84900853 -29 38 C-25.52326295 39.73836852 -21.80129202 39.45436319 -18 39 C-14.29089903 37.21413657 -12.45978699 35.63776905 -10.0625 32.3125 C-8.65408786 27.92156804 -8.78903557 24.4347481 -10 20 C-12.12017834 16.56384889 -14.09622164 14.19282117 -18 13 C-24.87211203 12.45459428 -28.31851758 13.24403196 -33.25 18.3125 Z M193.125 19.25 C191.63248926 22.89835958 191.32103326 26.15252181 192 30 C194.22136563 34.36045847 196.43567029 37.13277421 201 39 C205.04912559 39.59255496 208.08310702 39.42788339 211.8125 37.6875 C215.01258327 35.21886433 216.70223538 33.89329386 218 30 C218.38773716 25.26960665 218.48117872 22.94453601 216.3125 18.6875 C212.73770791 14.5330119 210.56223989 13.17358221 205.0625 12.5625 C199.75214 12.78293004 196.48124159 15.22251009 193.125 19.25 Z M79.0625 269.6875 C77.65746406 274.06790615 77.65033866 277.59327441 79 282 C81.46455654 285.0482673 83.74987624 286.83325083 87 289 C92.34635097 289.43115734 95.67965526 289.48027771 100 286 C103.39924597 282.50633053 104.9036742 279.91261604 105 275 C104.09713436 270.51171601 102.70866887 267.67492273 99.375 264.5 C91.3201035 260.920046 84.36043444 262.33875223 79.0625 269.6875 Z " fill="#014D8B" transform="translate(753,168)"/>
<path d="M0 0 C23.84296661 -0.02254474 47.68592464 -0.04097784 71.52889919 -0.05181217 C82.59877846 -0.05697571 93.66865066 -0.0640195 104.73852539 -0.07543945 C114.38331054 -0.08538454 124.02809057 -0.09185301 133.67288071 -0.09408849 C138.78306561 -0.0953959 143.89323585 -0.09848364 149.00341606 -0.10573006 C153.80742559 -0.1124875 158.61141433 -0.11461753 163.41542816 -0.11310768 C165.18398463 -0.11338413 166.95254175 -0.11539088 168.72109413 -0.11920547 C171.12487473 -0.12413843 173.52857557 -0.12299978 175.93235779 -0.12025452 C176.64148848 -0.12316736 177.35061918 -0.1260802 178.08123869 -0.12908131 C182.88587879 -0.11412121 182.88587879 -0.11412121 184 1 C184 19.15 184 37.3 184 56 C123.28 56 62.56 56 0 56 C0 37.52 0 19.04 0 0 Z " fill="#014D8C" transform="translate(235,775)"/>
<path d="M0 0 C60.39 0 120.78 0 183 0 C183 18.48 183 36.96 183 56 C122.61 56 62.22 56 0 56 C0 37.52 0 19.04 0 0 Z " fill="#014D8C" transform="translate(1218,775)"/>
<path d="M0 0 C60.72 0 121.44 0 184 0 C184 18.15 184 36.3 184 55 C123.28 55 62.56 55 0 55 C0 36.85 0 18.7 0 0 Z " fill="#014C8B" transform="translate(235,1020)"/>
<path d="M0 0 C60.39 0 120.78 0 183 0 C183 18.15 183 36.3 183 55 C122.61 55 62.22 55 0 55 C0 36.85 0 18.7 0 0 Z " fill="#014C8B" transform="translate(1218,1020)"/>
<path d="M0 0 C42.9 0 85.8 0 130 0 C128.19950402 4.50123996 126.07155482 8.14377306 123.37890625 12.109375 C122.91951157 12.79445129 122.46011688 13.47952759 121.98680115 14.18536377 C120.51638959 16.37654096 119.03978564 18.56345281 117.5625 20.75 C116.11846742 22.89442869 114.67584783 25.03979229 113.23460388 27.18609619 C112.34133459 28.51559629 111.44643218 29.844002 110.54920959 31.1708374 C110.11603928 31.81409973 109.68286896 32.45736206 109.23657227 33.12011719 C108.49485023 34.16958275 108.49485023 34.16958275 107.73814392 35.24024963 C106.27532942 37.56284375 105.12510252 39.7991801 103.95533752 42.27134705 C98.21745736 53.63601028 98.21745736 53.63601028 92.78386497 55.93949509 C86.30491802 57.39416752 79.73036883 56.95185944 73.14453125 56.66015625 C71.03042822 56.62840368 68.9161991 56.60422618 66.80192566 56.58726501 C61.26646672 56.5226913 55.73872883 56.35606663 50.20629883 56.16729736 C43.55306362 55.96185162 36.89722871 55.88459254 30.24172211 55.78559113 C20.15579707 55.62132959 10.08676943 55.29559006 0 55 C0 36.85 0 18.7 0 0 Z " fill="#2184C0" transform="translate(235,898)"/>
<path d="M0 0 C42.9 0 85.8 0 130 0 C126.535 5.94 126.535 5.94 123 12 C121.54076909 15.93938361 121.54076909 15.93938361 120.18548584 19.91493225 C115.73447824 32.96783587 108.78629342 47.49173056 96.06863403 54.15506744 C69.30014286 65.08864454 27.55210767 57.13125438 0 55 C0 36.85 0 18.7 0 0 Z " fill="#2184C0" transform="translate(1218,898)"/>
<path d="M0 0 C6.62812303 5.81431502 10.27147785 10.52146481 13.078125 18.94140625 C125.443125 19.43640625 125.443125 19.43640625 240.078125 19.94140625 C240.078125 24.89140625 240.078125 29.84140625 240.078125 34.94140625 C165.168125 34.94140625 90.258125 34.94140625 13.078125 34.94140625 C12.088125 37.91140625 11.098125 40.88140625 10.078125 43.94140625 C5.94876351 51.58837198 -0.76313063 57.35855084 -8.94921875 60.28125 C-17.39649591 62.15718934 -27.21432252 62.42070483 -34.96875 58.203125 C-35.93554688 57.57857422 -35.93554688 57.57857422 -36.921875 56.94140625 C-37.98148438 56.27044922 -37.98148438 56.27044922 -39.0625 55.5859375 C-46.50081461 50.44799055 -51.24511084 43.9056454 -52.921875 34.94140625 C-53.97155366 23.27973241 -52.78640634 14.42775597 -45.421875 5.19140625 C-33.59101009 -7.304114 -14.29006334 -10.06799917 0 0 Z M-35.359375 18.06640625 C-37.81208069 22.57938473 -38.26260445 25.83046452 -37.921875 30.94140625 C-35.81343182 37.3777065 -32.77375934 41.10352523 -27.109375 44.75390625 C-21.53632108 46.83014202 -17.07879162 46.72189697 -11.734375 44.31640625 C-6.93063602 41.65921992 -3.68421053 38.22841284 -1.921875 32.94140625 C-1.38802358 26.97664331 -1.36917351 21.9839503 -4.921875 16.94140625 C-9.46543254 12.37636617 -13.01360434 9.83562138 -19.609375 9.56640625 C-26.72525309 9.6495114 -31.05616338 12.54946828 -35.359375 18.06640625 Z " fill="#014D8B" transform="translate(52.921875,1145.05859375)"/>
<path d="M0 0 C7.05696786 6.04512321 11.46026909 14.34455856 12.3125 23.5859375 C12.72926446 33.71852342 10.46210463 41.46523999 3.875 49.25 C-3.46866395 56.87238387 -10.59594931 59.98332704 -21.0625 60.1875 C-31.09868738 60.19841813 -37.97816715 57.49277319 -45.25390625 50.59765625 C-49.8696827 45.87478522 -53.9375 40.75829767 -53.9375 33.875 C-128.8475 33.875 -203.7575 33.875 -280.9375 33.875 C-280.9375 28.925 -280.9375 23.975 -280.9375 18.875 C-206.0275 18.875 -131.1175 18.875 -53.9375 18.875 C-53.6075 17.225 -53.2775 15.575 -52.9375 13.875 C-49.00368111 5.13630232 -42.95232751 -0.97613617 -34.25 -5 C-22.50773456 -8.98793921 -10.16772693 -7.27740861 0 0 Z M-37.9375 17.75 C-39.92626451 23.9648891 -40.73854936 28.8458443 -38.16015625 34.9140625 C-35.30931736 39.48633445 -31.03742382 43.17502539 -25.9375 44.875 C-19.47467965 45.30585469 -14.420448 44.82950072 -9.23828125 40.43359375 C-5.16331755 36.18102872 -3.07633909 31.80541264 -2.9375 25.875 C-3.8960546 19.86936202 -6.11064619 15.69158208 -10.9375 11.875 C-20.61084239 5.35111792 -31.48609157 8.47610038 -37.9375 17.75 Z " fill="#014D8B" transform="translate(1676.9375,1146.125)"/>
<path d="M0 0 C12.87 0 25.74 0 39 0 C41.0625 5.713125 43.125 11.42625 45.25 17.3125 C53.5160311 39.89492624 63.06455093 61.66675555 73.91796875 83.13671875 C74.38323975 84.08015137 74.84851074 85.02358398 75.32788086 85.99560547 C76.96744704 89.10834928 76.96744704 89.10834928 79.34594727 92.08642578 C88.89279004 105.14550732 87.03479185 120.83486308 86.61798096 136.23016357 C86.52473818 140.04491113 86.4845628 143.86021477 86.43945312 147.67578125 C86.34387009 155.11868211 86.19095491 162.55886867 86 170 C82.93752894 168.55066088 81.24829057 167.40530089 79.2578125 164.640625 C78.75636719 163.94880127 78.25492188 163.25697754 77.73828125 162.54418945 C77.20589844 161.78710693 76.67351562 161.03002441 76.125 160.25 C75.55910156 159.45360107 74.99320313 158.65720215 74.41015625 157.83666992 C62.49452986 140.8880008 51.92995808 123.17086542 42 105 C41.5246582 104.13584473 41.04931641 103.27168945 40.55957031 102.38134766 C25.1077544 74.15394007 12.58733922 43.95691045 2.75 13.3125 C2.46213623 12.41619873 2.17427246 11.51989746 1.87768555 10.59643555 C0.69892892 6.78673308 0 4.05121693 0 0 Z " fill="#2183BF" transform="translate(716,258)"/>
<path d="M0 0 C12.87 0 25.74 0 39 0 C37.36741689 8.16291556 35.39741429 15.39716138 32.6875 23.1875 C32.47136047 23.81015747 32.25522095 24.43281494 32.03253174 25.07434082 C14.76322668 74.59332703 -9.38082874 122.2786728 -40.76708984 164.33691406 C-41.78114284 165.70478119 -42.76416917 167.09559535 -43.73828125 168.4921875 C-44.15464844 168.98976563 -44.57101562 169.48734375 -45 170 C-45.66 170 -46.32 170 -47 170 C-47.23406268 161.70590147 -47.41054341 153.41323307 -47.51812172 145.11662483 C-47.56981604 141.2619287 -47.6396369 137.40952758 -47.75439453 133.55615234 C-48.6837689 101.50842609 -48.6837689 101.50842609 -38.26951599 87.75042725 C-36.12770347 84.79726476 -34.45419281 81.5941337 -32.75 78.375 C-32.35063232 77.63088867 -31.95126465 76.88677734 -31.53979492 76.12011719 C-21.16856248 55.8501111 -12.72093309 34.55523611 -5.14990234 13.10595703 C-3.52023438 8.70412351 -1.74324137 4.35810343 0 0 Z " fill="#2184BF" transform="translate(934,258)"/>
<path d="M0 0 C9.4978125 -0.12375 9.4978125 -0.12375 19.1875 -0.25 C21.1574292 -0.28641602 23.1273584 -0.32283203 25.15698242 -0.36035156 C38.02595139 -0.49954937 49.8177943 0.23201681 60.0625 9.0078125 C67.90108843 17.06765141 70.86388444 25.88389556 71 37 C70.16873767 45.95916067 66.79873474 54.85114431 60 61 C47.18319076 70.49651264 34.09454873 70.40309842 18.8125 70.1875 C12.604375 70.125625 6.39625 70.06375 0 70 C0 46.9 0 23.8 0 0 Z M17 14 C17 27.86 17 41.72 17 56 C33.64832061 56.91795242 33.64832061 56.91795242 47.3125 50.6875 C51.00988304 46.99011696 52.79205543 43.79403159 53.3984375 38.5625 C53.38683594 36.7990625 53.38683594 36.7990625 53.375 35 C53.38273437 33.824375 53.39046875 32.64875 53.3984375 31.4375 C52.78120241 26.1123345 50.80177581 22.19275033 46.6875 18.75 C46.13449219 18.27046875 45.58148438 17.7909375 45.01171875 17.296875 C36.26500948 11.65821971 27.62714218 14 17 14 Z " fill="#2184BF" transform="translate(334,1138)"/>
<path d="M0 0 C3.16191527 2.1651238 6.12246705 4.47061301 9 7 C7.55218207 10.44428265 5.72305391 12.36130962 2.875 14.75 C2.15054688 15.36359375 1.42609375 15.9771875 0.6796875 16.609375 C0.12539063 17.06828125 -0.42890625 17.5271875 -1 18 C-1.49628906 17.66226562 -1.99257813 17.32453125 -2.50390625 16.9765625 C-9.19678314 12.58237767 -15.81828907 9.81445691 -24 11 C-29.93236654 12.65533606 -34.84214922 14.44218263 -38 20 C-41.34599342 26.79426612 -42.19442996 32.9328219 -39.8125 40.1875 C-37.76223167 45.07365349 -34.69616721 47.92062087 -30.25 50.75 C-22.33718035 53.79339217 -17.51893443 52.89309654 -9 51 C-8.67 44.07 -8.34 37.14 -8 30 C-4.3184375 29.9690625 -4.3184375 29.9690625 -0.5625 29.9375 C0.21150146 29.928396 0.98550293 29.91929199 1.78295898 29.90991211 C3.52221717 29.90275087 5.26145304 29.94975298 7 30 C9.81019262 32.81019262 8.48235489 40.97758822 8.5625 44.75 C8.62501953 46.0390625 8.68753906 47.328125 8.75195312 48.65625 C8.91034563 57.91021191 8.91034563 57.91021191 6.39233398 60.92456055 C4.30217168 62.27291576 2.34028298 63.16848166 0 64 C-1.02222656 64.44988281 -2.04445313 64.89976563 -3.09765625 65.36328125 C-15.49893714 69.33365181 -28.41336482 69.92881773 -40.2109375 63.86328125 C-49.25140825 58.53646113 -55.79276799 50.91823367 -58.49609375 40.73828125 C-60.43261127 30.2150349 -58.93598062 20.45722368 -53.375 11.3125 C-41.81237943 -4.72780206 -17.33223132 -9.73185156 0 0 Z " fill="#2184BF" transform="translate(707,1141)"/>
<path d="M0 0 C1.58206057 0.00667536 3.16410534 0.0186375 4.74609375 0.03515625 C5.55240234 0.03966797 6.35871094 0.04417969 7.18945312 0.04882812 C9.18753131 0.06065107 11.18557158 0.07858711 13.18359375 0.09765625 C18.0023574 10.78858396 22.81640556 21.48161451 27.62265015 32.17817688 C29.79490354 37.01190435 31.97102647 41.84383575 34.15356445 46.67292786 C35.5428709 49.75007624 36.92522683 52.8303333 38.30859375 55.91015625 C39.06124512 57.56881714 39.06124512 57.56881714 39.82910156 59.26098633 C40.27866211 60.26540771 40.72822266 61.2698291 41.19140625 62.3046875 C41.5795752 63.16553955 41.96774414 64.0263916 42.36767578 64.91333008 C43.18359375 67.09765625 43.18359375 67.09765625 43.18359375 70.09765625 C37.57359375 70.09765625 31.96359375 70.09765625 26.18359375 70.09765625 C20.18359375 57.34765625 20.18359375 57.34765625 20.18359375 55.09765625 C9.62359375 55.09765625 -0.93640625 55.09765625 -11.81640625 55.09765625 C-12.80640625 58.06765625 -13.79640625 61.03765625 -14.81640625 64.09765625 C-15.80640625 66.07765625 -16.79640625 68.05765625 -17.81640625 70.09765625 C-23.42640625 70.09765625 -29.03640625 70.09765625 -34.81640625 70.09765625 C-32.61216408 62.97795403 -29.7534858 56.39030493 -26.56640625 49.66015625 C-20.72130503 37.17828602 -15.14484368 24.58797974 -9.62988281 11.95727539 C-9.31651474 11.24185577 -9.00314667 10.52643616 -8.68028259 9.78933716 C-8.08816444 8.43736178 -7.49803657 7.08451249 -6.91017151 5.73068237 C-4.44845029 0.11382933 -4.44845029 0.11382933 0 0 Z M4.18359375 18.09765625 C-2.59419273 29.60995033 -2.59419273 29.60995033 -5.81640625 42.09765625 C0.78359375 42.09765625 7.38359375 42.09765625 14.18359375 42.09765625 C12.25445522 36.31024066 10.29319173 30.66730018 7.99609375 25.03515625 C7.72345703 24.36033203 7.45082031 23.68550781 7.16992188 22.99023438 C6.51024064 21.35839131 5.84727954 19.72787473 5.18359375 18.09765625 C4.85359375 18.09765625 4.52359375 18.09765625 4.18359375 18.09765625 Z " fill="#2183BF" transform="translate(1150.81640625,1137.90234375)"/>
<path d="M0 0 C5.28 0 10.56 0 16 0 C18.16806098 6.30072854 20.03057817 12.61001588 21.6875 19.0625 C21.91244141 19.92810547 22.13738281 20.79371094 22.36914062 21.68554688 C22.91551056 23.78965238 23.45815403 25.89472496 24 28 C25.96105379 25.05841932 26.62525566 23.12492531 27.47265625 19.74609375 C27.73240234 18.72708984 27.99214844 17.70808594 28.25976562 16.65820312 C28.52466797 15.59537109 28.78957031 14.53253906 29.0625 13.4375 C29.59312441 11.33154461 30.12558515 9.22605078 30.66015625 7.12109375 C30.89355713 6.1870874 31.12695801 5.25308105 31.36743164 4.29077148 C32 2 32 2 33 0 C38.28 0 43.56 0 49 0 C49 16.5 49 33 49 50 C45.7 50 42.4 50 39 50 C38.67 39.77 38.34 29.54 38 19 C35.36 29.23 32.72 39.46 30 50 C26.37 50 22.74 50 19 50 C16.69 40.76 14.38 31.52 12 22 C11.7106993 30.84053221 11.7106993 30.84053221 11.43188477 39.68139648 C11.39377686 40.77524658 11.35566895 41.86909668 11.31640625 42.99609375 C11.26141968 44.68496704 11.26141968 44.68496704 11.20532227 46.40795898 C11 49 11 49 10 50 C8.50261876 50.0979057 7.00057108 50.12974864 5.5 50.125 C4.6853125 50.12757812 3.870625 50.13015625 3.03125 50.1328125 C1 50 1 50 0 49 C-0.09319449 47.4651703 -0.117458 45.92607918 -0.11352539 44.38842773 C-0.11344986 43.40748642 -0.11337433 42.4265451 -0.11329651 41.4158783 C-0.10813522 40.3492244 -0.10297394 39.2825705 -0.09765625 38.18359375 C-0.0962413 37.0974025 -0.09482635 36.01121124 -0.09336853 34.8921051 C-0.08775048 31.40720925 -0.07519492 27.92237658 -0.0625 24.4375 C-0.05748733 22.08138113 -0.05292402 19.72526126 -0.04882812 17.36914062 C-0.03777518 11.57940257 -0.02049846 5.78971201 0 0 Z " fill="#262F36" transform="translate(1209,6)"/>
<path d="M0 0 C20.13 0 40.26 0 61 0 C61 4.62 61 9.24 61 14 C53.74 14 46.48 14 39 14 C39 32.48 39 50.96 39 70 C33.39 70 27.78 70 22 70 C22 51.52 22 33.04 22 14 C14.74 14 7.48 14 0 14 C0 9.38 0 4.76 0 0 Z " fill="#2183BF" transform="translate(958,1138)"/>
<path d="M0 0 C5.61 0 11.22 0 17 0 C17 18.48 17 36.96 17 56 C28.14443325 55.96039927 28.14443325 55.96039927 39.28881836 55.90991211 C40.68082605 55.90699286 42.07283459 55.90444433 43.46484375 55.90234375 C44.55835144 55.8946698 44.55835144 55.8946698 45.6739502 55.88684082 C47.44970076 55.88652989 49.22534208 55.93771485 51 56 C52 57 52 57 52.1328125 59.6875 C52.13023438 60.780625 52.12765625 61.87375 52.125 63 C52.12886719 64.6396875 52.12886719 64.6396875 52.1328125 66.3125 C52 69 52 69 51 70 C49.40389018 70.09333705 47.80366572 70.11745372 46.20483398 70.11352539 C45.16951538 70.11340454 44.13419678 70.11328369 43.06750488 70.11315918 C41.97143921 70.10804321 40.87537354 70.10292725 39.74609375 70.09765625 C38.74453247 70.09664917 37.74297119 70.09564209 36.71105957 70.09460449 C32.95319481 70.08935429 29.19534631 70.07539317 25.4375 70.0625 C17.043125 70.041875 8.64875 70.02125 0 70 C0 46.9 0 23.8 0 0 Z " fill="#2184C0" transform="translate(1303,1138)"/>
<path d="M0 0 C5.61 0 11.22 0 17 0 C17 23.1 17 46.2 17 70 C11.39 70 5.78 70 0 70 C0 46.9 0 23.8 0 0 Z " fill="#2284C0" transform="translate(831,1138)"/>
<path d="M0 0 C5.61 0 11.22 0 17 0 C17 23.1 17 46.2 17 70 C11.39 70 5.78 70 0 70 C0 46.9 0 23.8 0 0 Z " fill="#2184C0" transform="translate(518,1138)"/>
<path d="M0 0 C13.2 0 26.4 0 40 0 C40 2.97 40 5.94 40 9 C35.05 9 30.1 9 25 9 C25 22.53 25 36.06 25 50 C21.7 50 18.4 50 15 50 C15 36.47 15 22.94 15 9 C10.05 9 5.1 9 0 9 C0 6.03 0 3.06 0 0 Z " fill="#282C2F" transform="translate(1164,6)"/>
</svg>
