<?xml version="1.0" encoding="UTF-8"?>
<svg version="1.1" xmlns="http://www.w3.org/2000/svg" width="2772" height="764">
<path d="M0 0 C32.34 0 64.68 0 98 0 C98 63.69 98 127.38 98 193 C144.2 193 190.4 193 238 193 C238 129.31 238 65.62 238 0 C270.01 0 302.02 0 335 0 C335 162.03 335 324.06 335 491 C302.99 491 270.98 491 238 491 C238 422.36 238 353.72 238 283 C191.8 283 145.6 283 98 283 C98 351.64 98 420.28 98 491 C65.66 491 33.32 491 0 491 C0 328.97 0 166.94 0 0 Z " fill="#034E8D" transform="translate(1214,53)"/>
<path d="M0 0 C4.36537811 4.01385646 8.52098967 8.23794574 12.63720703 12.50537109 C11.043052 16.41746418 8.49827371 18.87755195 5.51220703 21.81787109 C4.60212891 22.72150391 3.69205078 23.62513672 2.75439453 24.55615234 C-0.16529017 27.36771829 -3.21826098 30.01247946 -6.27880859 32.66870117 C-9.78349412 35.75747217 -13.16189967 38.97771659 -16.55029297 42.19287109 C-22.17789128 47.51157052 -27.81952745 52.81199165 -33.52929688 58.04248047 C-36.50337942 60.77113355 -39.44361265 63.53026163 -42.35888672 66.32177734 C-43.0354834 66.96550293 -43.71208008 67.60922852 -44.40917969 68.27246094 C-45.72511481 69.52592978 -47.03561464 70.78513683 -48.33984375 72.05078125 C-48.93651855 72.61716309 -49.53319336 73.18354492 -50.14794922 73.76708984 C-50.93504272 74.52445435 -50.93504272 74.52445435 -51.73803711 75.29711914 C-53.61583979 76.69354972 -55.05188041 77.18948882 -57.36279297 77.50537109 C-58.89794922 76.38818359 -58.89794922 76.38818359 -60.42529297 74.63037109 C-82.95771798 50.51924114 -115.90798797 35.51469738 -148.36279297 31.50537109 C-149.37728516 31.37646484 -150.39177734 31.24755859 -151.43701172 31.11474609 C-189.94967741 27.12161841 -230.94312081 36.01179711 -261.71044922 60.26318359 C-265.30076619 63.29829691 -268.78964465 66.42874593 -272.20654297 69.65771484 C-274.36279297 71.50537109 -274.36279297 71.50537109 -276.51904297 72.50927734 C-278.51212998 73.35567986 -278.51212998 73.35567986 -279.27416992 75.36181641 C-280.45662767 77.69013645 -281.72561417 79.02097174 -283.62451172 80.79833984 C-311.22840567 107.65984823 -323.28279488 147.93861932 -324.36279297 185.50537109 C-324.91438622 226.83349548 -311.72966844 267.0116446 -283.36279297 297.50537109 C-282.5175708 298.41633545 -282.5175708 298.41633545 -281.65527344 299.34570312 C-257.35312937 325.23320043 -225.00115825 342.79705471 -189.36279297 346.50537109 C-188.40888672 346.61494141 -187.45498047 346.72451172 -186.47216797 346.83740234 C-146.577703 350.83751581 -105.90222943 340.63255533 -74.36279297 315.50537109 C-70.1232283 312.01933569 -65.98483563 308.42218575 -61.86230469 304.79931641 C-59.74494709 302.97222503 -57.5614442 301.23317523 -55.36279297 299.50537109 C-54.73373047 300.14603516 -54.10466797 300.78669922 -53.45654297 301.44677734 C-52.60060547 302.31173828 -51.74466797 303.17669922 -50.86279297 304.06787109 C-49.60982422 305.33824219 -49.60982422 305.33824219 -48.33154297 306.63427734 C-45.48785996 309.44332353 -42.47924887 312.0425077 -39.45996094 314.65991211 C-35.94893444 317.74953368 -32.56752927 320.97407007 -29.17529297 324.19287109 C-23.54614435 329.51303573 -17.89693858 334.80800906 -12.1940918 340.04907227 C-9.24971665 342.75719603 -6.31904777 345.47889512 -3.40185547 348.21630859 C-2.72977051 348.84649902 -2.05768555 349.47668945 -1.36523438 350.12597656 C-0.06659184 351.34481956 1.23069363 352.56511072 2.52636719 353.78710938 C5.79027164 356.84895838 9.09171046 359.7656692 12.63720703 362.50537109 C11.77477969 367.11137651 9.02523804 369.53100144 5.76220703 372.69287109 C5.17503906 373.26948486 4.58787109 373.84609863 3.98291016 374.44018555 C-1.20411371 379.47229965 -6.6617602 384.06498923 -12.36279297 388.50537109 C-13.29865234 389.26978516 -14.23451172 390.03419922 -15.19873047 390.82177734 C-46.38128943 415.79187276 -85.14565925 431.56880303 -124.36279297 438.50537109 C-125.66023437 438.73643555 -125.66023437 438.73643555 -126.98388672 438.97216797 C-191.8969787 450.07697739 -260.37673657 435.11892323 -314.40966797 397.34912109 C-323.03479375 391.18712416 -331.31394855 384.7668044 -339.11279297 377.56787109 C-341.09068855 375.75480015 -343.11476114 374.03498095 -345.17529297 372.31787109 C-390.14653747 332.85515252 -417.71383052 269.0779301 -422.15185547 210.18164062 C-423.83721275 180.80882813 -421.87975532 152.02545144 -414.36279297 123.50537109 C-414.15315918 122.6897168 -413.94352539 121.8740625 -413.72753906 121.03369141 C-404.85156929 87.07405339 -387.85976504 54.42362309 -365.36279297 27.50537109 C-364.87810547 26.91916992 -364.39341797 26.33296875 -363.89404297 25.72900391 C-354.01611249 13.81246408 -343.54756688 3.11291036 -331.36279297 -6.49462891 C-330.31590576 -7.35370687 -329.2703795 -8.21444542 -328.22607422 -9.07666016 C-248.73186863 -74.06933784 -136.91504032 -79.88959872 0 0 Z " fill="#044F8D" transform="translate(1146.36279296875,109.49462890625)"/>
<path d="M0 0 C66.42941386 -1.18889331 130.94149476 23.93168209 179.015625 69.57128906 C181.55771812 72.04140303 184.04628164 74.55978166 186.4921875 77.125 C185.15639102 80.10136205 183.69984147 82.16451858 181.3671875 84.4375 C180.55894531 85.23607422 180.55894531 85.23607422 179.734375 86.05078125 C177.7728719 87.86534248 175.7790212 89.62324269 173.76171875 91.375 C169.50676277 95.08237104 165.39803825 98.92843048 161.3046875 102.8125 C155.67478397 108.13337811 150.02457113 113.42877878 144.32128906 118.67089844 C141.39001156 121.36723322 138.47159464 124.07632876 135.56640625 126.80078125 C134.89883301 127.42645996 134.23125977 128.05213867 133.54345703 128.69677734 C132.25796407 129.90273575 130.97369759 131.11000346 129.69091797 132.31884766 C127.96914529 133.93345021 126.23262666 135.53056913 124.4921875 137.125 C123.95319824 137.63820801 123.41420898 138.15141602 122.85888672 138.68017578 C119.11072165 142.09005457 119.11072165 142.09005457 116.41796875 142.2421875 C113.66993603 140.64799408 111.83278361 138.58500131 109.6796875 136.25 C83.02559159 108.53484065 43.68457647 95.67537462 5.96972656 94.82446289 C-36.45193738 94.60874459 -74.70993876 110.17184091 -105.13916016 139.70849609 C-136.29107842 171.03417776 -150.78709499 212.56741016 -150.68847656 256.2800293 C-150.27435997 300.90823249 -132.01518535 340.85222397 -100.5078125 372.125 C-96.98238282 375.33177535 -93.31366311 378.25905582 -89.5078125 381.125 C-88.98493652 381.5281543 -88.46206055 381.93130859 -87.92333984 382.34667969 C-79.00338306 389.19927123 -69.75090805 394.5003188 -59.5078125 399.125 C-58.31671875 399.67027344 -57.125625 400.21554687 -55.8984375 400.77734375 C-18.9342349 416.63643941 25.59644228 416.0248739 62.8046875 401.375 C80.5436937 394.07670555 95.23675015 384.07076536 109.32421875 371.109375 C111.97399475 368.68399444 114.70929463 366.39525471 117.4921875 364.125 C124.23344749 370.10462725 130.82787729 376.22821991 137.39233398 382.40039062 C141.59447023 386.35001476 145.81160171 390.28190993 150.0546875 394.1875 C155.35238249 399.06433854 160.62402787 403.96833149 165.87792969 408.89233398 C168.98383095 411.79977123 172.10371951 414.68821677 175.26171875 417.5390625 C175.85855469 418.08046875 176.45539062 418.621875 177.0703125 419.1796875 C178.19470373 420.1977174 179.32337107 421.21105206 180.45703125 422.21875 C183.12804778 424.64321116 185.17718039 426.72989074 186.4921875 430.125 C179.1889586 437.65764971 171.75424219 444.63178629 163.4921875 451.125 C162.446454 451.98259455 161.40223964 452.84204411 160.359375 453.703125 C111.99781343 493.23797078 45.21567807 511.87877793 -16.79052734 506.40234375 C-82.26335331 499.71976241 -146.24959665 469.99444536 -189.0078125 418.9375 C-190.52301789 417.01186792 -192.02100643 415.07264318 -193.5078125 413.125 C-194.01779785 412.46967285 -194.5277832 411.8143457 -195.05322266 411.13916016 C-226.75157348 370.27964766 -248.42806088 317.82943071 -248.7109375 265.5859375 C-248.71799713 264.71046265 -248.72505676 263.83498779 -248.73233032 262.9329834 C-249.08430535 206.43942832 -235.89229056 152.63074058 -202.5078125 106.125 C-201.78078125 105.1040625 -201.05375 104.083125 -200.3046875 103.03125 C-187.32262392 85.28598324 -172.11810394 68.36702434 -154.5078125 55.125 C-153.87713867 54.64498535 -153.24646484 54.1649707 -152.59667969 53.67041016 C-108.08289107 19.94815716 -55.67641492 1.98401479 0 0 Z " fill="#044F8D" transform="translate(2585.5078125,44.875)"/>
<path d="M0 0 C3.16993048 2.81062086 6.28218405 5.67967779 9.36621094 8.58447266 C8.79151466 12.72624927 6.53885182 15.23674712 3.99121094 18.45947266 C3.54422852 19.02899658 3.09724609 19.59852051 2.63671875 20.18530273 C1.21892606 21.9896092 -0.20734762 23.787 -1.63378906 25.58447266 C-2.50699765 26.69451087 -3.3794108 27.80517533 -4.25097656 28.91650391 C-6.0479612 31.20754184 -7.84787597 33.49623272 -9.64941406 35.78369141 C-13.59828978 40.80482241 -17.51261953 45.85280753 -21.43041992 50.89819336 C-25.08374184 55.60019579 -28.75731525 60.28541617 -32.44628906 64.95947266 C-37.28139059 71.09002317 -41.98227556 77.31354335 -46.63378906 83.58447266 C-50.37277324 81.95534384 -53.22728301 79.58162668 -56.38378906 77.02197266 C-74.49505106 62.83817423 -97.50035458 52.92377676 -120.63378906 51.58447266 C-121.47167969 51.53162109 -122.30957031 51.47876953 -123.17285156 51.42431641 C-136.61612705 50.97878999 -148.18983861 54.68856494 -158.32128906 63.58447266 C-166.49221543 72.24060843 -170.06044201 83.67889937 -169.90332031 95.33447266 C-168.74357322 109.3186695 -160.01217771 120.69365305 -149.63378906 129.58447266 C-134.03919018 141.96589869 -116.25119408 151.26964731 -98.69628906 160.52197266 C-75.33568501 172.84068854 -52.77147599 186.39306663 -32.63378906 203.58447266 C-31.46742896 204.56530608 -30.30074248 205.54575146 -29.13378906 206.52587891 C-0.77483439 230.44774384 17.87042709 261.66095353 22.08496094 299.06494141 C25.2287707 341.73812835 16.25910328 379.82772857 -11.86035156 412.54931641 C-33.59348825 436.69328738 -62.35158006 451.13492829 -93.63378906 458.58447266 C-94.85324219 458.88095703 -96.07269531 459.17744141 -97.32910156 459.48291016 C-150.99892165 470.99172508 -207.76129774 458.93156881 -254.01123047 430.10253906 C-263.70456328 423.78241193 -272.35238361 416.6496202 -280.63378906 408.58447266 C-281.40078125 407.89095703 -282.16777344 407.19744141 -282.95800781 406.48291016 C-283.61414062 405.87705078 -284.27027344 405.27119141 -284.94628906 404.64697266 C-285.49929688 404.14294922 -286.05230469 403.63892578 -286.62207031 403.11962891 C-287.63378906 401.58447266 -287.63378906 401.58447266 -287.36376953 399.71728516 C-286.55158992 397.34430819 -285.5347148 395.87586809 -283.96582031 393.92431641 C-283.40958984 393.22306641 -282.85335938 392.52181641 -282.28027344 391.79931641 C-281.37245117 390.67203125 -281.37245117 390.67203125 -280.44628906 389.52197266 C-275.38153507 383.12986792 -270.43760284 376.67497522 -265.63378906 370.08447266 C-260.99028017 363.7261464 -256.24538538 357.46511428 -251.38378906 351.27197266 C-245.56962785 343.8652016 -240.02149384 336.3060219 -234.63378906 328.58447266 C-230.08226207 330.0874159 -226.68282136 332.68365183 -222.94628906 335.58447266 C-214.64349533 341.83376518 -205.8560364 346.82674096 -196.63378906 351.58447266 C-195.92996094 351.9520166 -195.22613281 352.31956055 -194.50097656 352.69824219 C-169.47533192 365.62698698 -138.51670279 373.522336 -110.71972656 365.77197266 C-98.12358354 361.51412149 -89.71212686 355.3361231 -83.32128906 343.58447266 C-78.01263002 332.03301286 -78.42716135 319.42421756 -82.63378906 307.58447266 C-89.63110419 291.10190812 -104.65277738 279.50359687 -119.63378906 270.58447266 C-120.48553711 270.07094238 -121.33728516 269.55741211 -122.21484375 269.02832031 C-133.51596868 262.23695028 -144.98496636 255.82045647 -156.63378906 249.64697266 C-180.24401905 237.08623861 -203.06813577 222.69460041 -223.12792969 204.91845703 C-224.13768565 204.02395207 -225.15208743 203.13466607 -226.17089844 202.25048828 C-252.70413619 179.21466083 -267.92851197 148.50009272 -271.63378906 113.58447266 C-271.91934545 108.14307442 -271.97485852 102.71973697 -271.94628906 97.27197266 C-271.94446625 96.5473584 -271.94264343 95.82274414 -271.94076538 95.07617188 C-271.89513022 84.2902195 -271.38737402 74.06586058 -268.63378906 63.58447266 C-268.4675 62.90642578 -268.30121094 62.22837891 -268.12988281 61.52978516 C-259.90358916 28.25899749 -237.67457494 -2.16843004 -208.63378906 -20.41552734 C-144.74121011 -58.88763099 -55.92577707 -48.45452114 0 0 Z " fill="#044F8D" transform="translate(1906.6337890625,88.41552734375)"/>
<path d="M0 0 C108.24 0 216.48 0 328 0 C328 29.7 328 59.4 328 90 C290.05 90 252.1 90 213 90 C213 222.33 213 354.66 213 491 C180.66 491 148.32 491 115 491 C115 358.67 115 226.34 115 90 C77.05 90 39.1 90 0 90 C0 60.3 0 30.6 0 0 Z " fill="#044F8D" transform="translate(0,53)"/>
<path d="M0 0 C99.33 0 198.66 0 301 0 C301 29.7 301 59.4 301 90 C201.67 90 102.34 90 0 90 C0 60.3 0 30.6 0 0 Z " fill="#044F8D" transform="translate(1999,454)"/>
<path d="M0 0 C99.33 0 198.66 0 301 0 C301 29.7 301 59.4 301 90 C201.67 90 102.34 90 0 90 C0 60.3 0 30.6 0 0 Z " fill="#044F8D" transform="translate(386,454)"/>
<path d="M0 0 C99.33 0 198.66 0 301 0 C301 29.7 301 59.4 301 90 C201.67 90 102.34 90 0 90 C0 60.3 0 30.6 0 0 Z " fill="#044F8D" transform="translate(1999,53)"/>
<path d="M0 0 C99.33 0 198.66 0 301 0 C301 29.7 301 59.4 301 90 C201.67 90 102.34 90 0 90 C0 60.3 0 30.6 0 0 Z " fill="#044F8D" transform="translate(386,53)"/>
<path d="M0 0 C70.62 0 141.24 0 214 0 C212.53575545 3.66061138 211.41159201 6.12072615 209.26953125 9.26098633 C208.72135742 10.06985794 208.17318359 10.87872955 207.60839844 11.71211243 C207.01575195 12.57668564 206.42310547 13.44125885 205.8125 14.33203125 C205.19536133 15.24143967 204.57822266 16.15084808 203.94238281 17.08781433 C201.96605879 19.99911198 199.98355787 22.90612715 198 25.8125 C188.47010814 39.63337856 188.47010814 39.63337856 179.39478493 53.75200272 C178.63756751 54.97331001 177.86770469 56.18696241 177.07977867 57.38868713 C174.30237873 61.6685749 172.01293258 66.02068393 169.8097229 70.62417603 C165.45491271 79.23301063 160.64041172 88.6487697 151.36226654 92.51640511 C141.81534428 94.94973583 131.62063805 94.19115487 121.87589979 93.73763633 C117.58102286 93.56699262 113.28544458 93.55285442 108.98770142 93.52095032 C100.87678846 93.43753612 92.77588718 93.21679011 84.66935503 92.9445141 C73.69740965 92.58412672 62.72265741 92.44013288 51.74627304 92.28295422 C34.4900378 92.03023013 17.25491247 91.4922451 0 91 C0 60.97 0 30.94 0 0 Z " fill="#2787C1" transform="translate(386,253)"/>
<path d="M0 0 C70.29 0 140.58 0 213 0 C212.16533058 3.33867767 211.66636293 4.81382755 209.86816406 7.51953125 C209.42024002 8.1996376 208.97231598 8.87974396 208.51081848 9.58045959 C208.01740463 10.31703293 207.52399078 11.05360626 207.015625 11.8125 C206.49590622 12.59833969 205.97618744 13.38417938 205.4407196 14.1938324 C203.71578453 16.79944839 201.98293345 19.3996981 200.25 22 C199.04704372 23.81350967 197.84465997 25.62739923 196.64282227 27.44165039 C194.75042817 30.29781339 192.85741541 33.15355349 190.96217346 36.00782776 C186.22913142 43.13642778 181.52096569 50.28103694 176.82421875 57.43359375 C175.49253833 59.46030309 174.16083291 61.486996 172.82910156 63.51367188 C170.88723414 66.46905092 168.94586418 69.4247494 167.00622559 72.3815918 C165.20299256 75.12956441 163.39677243 77.87555031 161.58984375 80.62109375 C161.05147385 81.44314804 160.51310394 82.26520233 159.9584198 83.11216736 C159.46417007 83.86204422 158.96992035 84.61192108 158.46069336 85.38452148 C158.03139023 86.03807114 157.6020871 86.69162079 157.15977478 87.36497498 C156 89 156 89 154 91 C151.34882927 91.24609566 151.34882927 91.24609566 147.91305542 91.24050903 C146.61452637 91.24325836 145.31599731 91.24600769 143.9781189 91.24884033 C142.53082184 91.24176154 141.08352571 91.23449191 139.63623047 91.22705078 C138.11871345 91.2264869 136.60119589 91.22680278 135.0836792 91.22793579 C130.95578263 91.2285112 126.82800155 91.21672657 122.70013189 91.20278788 C118.38929672 91.19031176 114.07845909 91.18911249 109.76760864 91.18673706 C101.60072756 91.1805131 93.43389983 91.16408992 85.26704228 91.14403808 C74.23376669 91.11753464 63.20047658 91.10671384 52.1671772 91.09503365 C34.77807815 91.07620994 17.38909169 91.0363704 0 91 C0 60.97 0 30.94 0 0 Z " fill="#2687C1" transform="translate(1999,253)"/>
<path d="M0 0 C10.47447064 8.48887533 17.42418868 21.01682978 19.49609375 34.2578125 C21.16543585 51.06911411 17.36975805 66.46232753 6.80859375 79.9453125 C-3.41984551 91.02390775 -17.42790518 97.32504552 -32.3359375 98.4765625 C-48.27873707 98.97803981 -62.58474874 93.71481649 -74.26342773 82.85400391 C-82.17982289 74.9573701 -86.0781853 66.17355677 -88.50390625 55.2578125 C-211.26390625 55.2578125 -334.02390625 55.2578125 -460.50390625 55.2578125 C-460.50390625 47.3378125 -460.50390625 39.4178125 -460.50390625 31.2578125 C-337.74390625 31.2578125 -214.98390625 31.2578125 -88.50390625 31.2578125 C-87.84390625 28.2878125 -87.18390625 25.3178125 -86.50390625 22.2578125 C-81.20923435 9.22076791 -70.97449193 -1.44245225 -58.19140625 -7.24609375 C-37.68920221 -15.42367741 -18.04062561 -12.55244777 0 0 Z M-58.50390625 24.2578125 C-63.69729642 30.8519644 -65.8299287 37.26191961 -65.44140625 45.6328125 C-64.42632134 54.05685053 -60.67682197 61.02927581 -54.46875 66.7890625 C-47.45838122 72.02941769 -39.14064065 74.17941526 -30.50390625 73.2578125 C-21.86094129 71.21984065 -14.97326331 67.37965634 -9.9375 59.9453125 C-5.2881989 51.89182228 -3.96465545 43.73008395 -6.15234375 34.53125 C-9.15366485 26.24555158 -13.87562111 20.33984574 -21.75390625 16.3203125 C-35.35697947 10.08909107 -48.45887144 13.27315305 -58.50390625 24.2578125 Z " fill="#09528F" transform="translate(2752.50390625,661.7421875)"/>
<path d="M0 0 C9.96571015 7.99427203 16.58115291 17.55712783 20.40332031 29.81054688 C20.40332031 30.80054688 20.40332031 31.79054688 20.40332031 32.81054688 C143.16332031 32.81054688 265.92332031 32.81054688 392.40332031 32.81054688 C392.40332031 40.73054687 392.40332031 48.65054688 392.40332031 56.81054688 C269.64332031 56.81054688 146.88332031 56.81054688 20.40332031 56.81054688 C19.74332031 59.78054688 19.08332031 62.75054688 18.40332031 65.81054688 C13.11709784 78.82678648 2.80987875 89.80886179 -10.13183594 95.31445312 C-26.40419542 101.32033975 -41.85038225 101.31744237 -57.81542969 94.41992188 C-71.89660567 87.06985749 -81.38312972 74.9863113 -86.34667969 59.93554688 C-89.76192198 46.33118393 -88.51130555 31.23835639 -82.01855469 18.78320312 C-80.33071532 16.01195336 -78.53906174 13.40863752 -76.59667969 10.81054688 C-75.79423828 9.71613281 -75.79423828 9.71613281 -74.97558594 8.59960938 C-57.32230669 -13.49874019 -22.28905336 -16.60432232 0 0 Z M-56.59667969 25.81054688 C-62.11684969 33.93975246 -63.45270579 41.03255863 -62.59667969 50.81054688 C-60.48017468 59.36122709 -55.96318512 65.76312836 -48.65917969 70.62304688 C-41.38819015 74.80937419 -34.01163005 76.10055645 -25.85839844 74.15820312 C-16.79431216 71.23713521 -10.28021581 66.14857342 -5.56542969 57.83398438 C-1.88865042 50.15425993 -1.7071219 42.18912214 -4.53808594 34.13085938 C-8.59659526 25.31733089 -14.49863591 19.29969356 -23.59667969 15.81054688 C-36.00796637 12.044189 -48.18163843 16.23609994 -56.59667969 25.81054688 Z " fill="#09528F" transform="translate(87.5966796875,660.189453125)"/>
<path d="M0 0 C15.345 -0.12375 15.345 -0.12375 31 -0.25 C35.79337891 -0.30462402 35.79337891 -0.30462402 40.68359375 -0.36035156 C43.26822237 -0.37205387 45.85285848 -0.38224202 48.4375 -0.390625 C49.73751953 -0.41108887 51.03753906 -0.43155273 52.37695312 -0.45263672 C70.65717533 -0.45944753 87.37244986 4.69398193 100.78125 17.55859375 C112.36786528 30.30795035 115.93532765 45.95948825 115.17919922 62.8125 C114.3393695 73.06437235 111.1839424 82.72990836 105 91 C104.47535156 91.70511719 103.95070313 92.41023437 103.41015625 93.13671875 C93.22576721 105.71743462 78.60472787 111.53506148 63 114 C57.94254279 114.3569866 52.91954375 114.35332826 47.8515625 114.29296875 C46.62719482 114.28994751 45.40282715 114.28692627 44.14135742 114.28381348 C39.63581727 114.26830219 35.13039875 114.2264208 30.625 114.1875 C15.465625 114.0946875 15.465625 114.0946875 0 114 C0 76.38 0 38.76 0 0 Z M27 22 C27 45.1 27 68.2 27 92 C54.31153344 93.44958818 54.31153344 93.44958818 77.8828125 82.33203125 C86.29784215 73.09241326 87.73175734 63.04935606 87.17041016 50.98730469 C86.39546055 41.94992677 81.78445909 34.80357343 75 29 C60.38290796 19.37296193 44.37428733 22 27 22 Z " fill="#2888C2" transform="translate(549,648)"/>
<path d="M0 0 C2.89140954 2.49394992 5.51161424 5.10565403 8 8 C6.47048225 11.78083039 4.18109791 13.85198638 1.125 16.5 C-2.024415 19.24516173 -5.07926589 22.01134184 -8 25 C-10.98041321 23.59389083 -13.61237645 21.94731093 -16.3125 20.0625 C-26.00016934 13.54042376 -36.11623538 11.38129396 -47.72265625 13.49609375 C-57.12205097 16.06748921 -64.48994801 20.88139175 -70 29 C-74.97336742 38.00781003 -75.73680267 49.11481798 -73.234375 59.03515625 C-69.95241638 67.66983311 -64.93716468 75.07780176 -56.5 79.23046875 C-44.51852325 84.169262 -34.33614105 83.76720763 -22 80 C-21.34 79.67 -20.68 79.34 -20 79 C-19.67 68.11 -19.34 57.22 -19 46 C-10.75 46 -2.5 46 6 46 C6.2532102 52.5706768 6.47178366 59.1243663 6.60424805 65.69604492 C6.65945386 67.92839967 6.73444181 70.16035861 6.82983398 72.39135742 C7.6002832 90.87801853 7.6002832 90.87801853 3.76831055 95.95922852 C0.87573375 97.85568615 -1.70332835 98.98164477 -5 100 C-6.06432251 100.45572388 -6.06432251 100.45572388 -7.15014648 100.9206543 C-9.00390625 101.70703125 -9.00390625 101.70703125 -12.5625 102.8125 C-13.73941406 103.19019531 -14.91632813 103.56789063 -16.12890625 103.95703125 C-35.95932869 109.54354305 -56.33584504 108.70557225 -74.69921875 99.0234375 C-79.75040568 95.92697024 -83.88795654 92.24149668 -88 88 C-88.57234375 87.43667969 -89.1446875 86.87335938 -89.734375 86.29296875 C-99.97221678 75.4482446 -103.51772013 60.47611783 -103.3515625 45.95117188 C-102.7813508 29.49422861 -96.63098472 16.48662852 -85 5 C-84.45859375 4.43667969 -83.9171875 3.87335937 -83.359375 3.29296875 C-61.85800497 -17.28536267 -23.45319871 -15.77243418 0 0 Z " fill="#2B89C3" transform="translate(1167,657)"/>
<path d="M0 0 C9.24 0 18.48 0 28 0 C34.36475519 13.25990664 40.42946635 26.62476851 46.37518311 40.07698059 C49.69236619 47.5757265 53.04701402 55.05769998 56.3989563 62.54095459 C57.49463217 64.98801161 58.5891938 67.43556375 59.68334961 69.88330078 C62.73247125 76.70392503 65.78218329 83.52416485 68.85598755 90.33370972 C69.72614102 92.2626687 70.593999 94.19264113 71.4609375 96.12304688 C72.50205124 98.44015978 73.54739458 100.75537852 74.59765625 103.06835938 C75.27828125 104.58719727 75.27828125 104.58719727 75.97265625 106.13671875 C76.36718994 107.01030029 76.76172363 107.88388184 77.16821289 108.78393555 C78 111 78 111 78 114 C68.76 114 59.52 114 50 114 C46.26131336 106.52262672 43.10481026 98.76202565 40 91 C22.84 91 5.68 91 -12 91 C-14.97 98.26 -17.94 105.52 -21 113 C-22 114 -22 114 -24.68383789 114.11352539 C-25.85164795 114.10828857 -27.01945801 114.10305176 -28.22265625 114.09765625 C-30.11274414 114.09282227 -30.11274414 114.09282227 -32.04101562 114.08789062 C-33.38151109 114.07953403 -34.72200588 114.07106907 -36.0625 114.0625 C-37.40689942 114.0574866 -38.7513006 114.05292342 -40.09570312 114.04882812 C-43.39717941 114.03699488 -46.69856803 114.02050971 -50 114 C-48.49937448 109.18533682 -46.59165185 104.68172793 -44.5 100.10546875 C-43.97836777 98.95371155 -43.97836777 98.95371155 -43.44619751 97.77868652 C-42.6937363 96.1173477 -41.94008295 94.45654841 -41.18536377 92.79623413 C-39.14465736 88.30507235 -37.1146874 83.80907308 -35.0859375 79.3125 C-34.45563126 77.9155616 -34.45563126 77.9155616 -33.81259155 76.49040222 C-29.35069239 66.58504147 -24.98067865 56.63992737 -20.625 46.6875 C-19.14068041 43.29685074 -17.65633134 39.90621439 -16.171875 36.515625 C-15.81773529 35.70659729 -15.46359558 34.89756958 -15.09872437 34.06402588 C-10.11544668 22.68724233 -5.05639419 11.34447414 0 0 Z M13 29 C10.71680688 34.37324605 8.43826486 39.74843075 6.1640625 45.12548828 C5.38930619 46.95546008 4.61326841 48.78488988 3.8359375 50.61376953 C2.72060381 53.23850252 1.60985202 55.86513278 0.5 58.4921875 C0.15001953 59.31306854 -0.19996094 60.13394958 -0.56054688 60.97970581 C-2.34629721 64.85394814 -2.34629721 64.85394814 -3 69 C8.22 69 19.44 69 31 69 C29.10337865 63.31013595 27.20074643 57.83096301 24.86328125 52.33984375 C24.57897751 51.66450089 24.29467377 50.98915802 24.00175476 50.29335022 C23.10846817 48.17339551 22.21058223 46.05542689 21.3125 43.9375 C20.69956186 42.48515596 20.08692914 41.03268298 19.47460938 39.58007812 C17.98659023 36.05188891 16.49444799 32.52547065 15 29 C14.34 29 13.68 29 13 29 Z " fill="#2B89C2" transform="translate(1882,648)"/>
<path d="M0 0 C33 0 66 0 100 0 C100 7.26 100 14.52 100 22 C88.12 22 76.24 22 64 22 C64 52.36 64 82.72 64 114 C54.76 114 45.52 114 36 114 C36 83.64 36 53.28 36 22 C24.12 22 12.24 22 0 22 C0 14.74 0 7.48 0 0 Z " fill="#2B8AC3" transform="translate(1572,648)"/>
<path d="M0 0 C8.91 0 17.82 0 27 0 C27 30.36 27 60.72 27 92 C45.81 92 64.62 92 84 92 C84 99.26 84 106.52 84 114 C56.28 114 28.56 114 0 114 C0 76.38 0 38.76 0 0 Z " fill="#2787C1" transform="translate(2139,648)"/>
<path d="M0 0 C9.24 0 18.48 0 28 0 C28 37.62 28 75.24 28 114 C18.76 114 9.52 114 0 114 C0 76.38 0 38.76 0 0 Z " fill="#2F8BC4" transform="translate(850,648)"/>
<path d="M0 0 C8.91 0 17.82 0 27 0 C27 37.62 27 75.24 27 114 C18.09 114 9.18 114 0 114 C0 76.38 0 38.76 0 0 Z " fill="#2787C1" transform="translate(1364,648)"/>
<path d="M0 0 C0.66 0.33 1.32 0.66 2 1 C-8.23 11.23 -18.46 21.46 -29 32 C-29.66 31.67 -30.32 31.34 -31 31 C-10.94954128 8.9587156 -10.94954128 8.9587156 0 0 Z " fill="#5F8FB6" transform="translate(2427,103)"/>
<path d="M0 0 C0.66 0.33 1.32 0.66 2 1 C-5.92 8.92 -13.84 16.84 -22 25 C-22.66 24.67 -23.32 24.34 -24 24 C-16.40684883 15.44263916 -8.69903567 7.43372139 0 0 Z " fill="#6995BB" transform="translate(812,105)"/>
<path d="M0 0 C0.66 0.33 1.32 0.66 2 1 C-2.62 5.62 -7.24 10.24 -12 15 C-12.66 14.67 -13.32 14.34 -14 14 C-12.60919892 12.41224451 -11.21211596 10.82999061 -9.8125 9.25 C-8.64654297 7.92742188 -8.64654297 7.92742188 -7.45703125 6.578125 C-5.11544754 4.12113732 -2.69841735 2.05137234 0 0 Z " fill="#5C8DB5" transform="translate(2686,659)"/>
<path d="M0 0 C0.66 0.33 1.32 0.66 2 1 C-1.3 4.3 -4.6 7.6 -8 11 C-8.66 10.67 -9.32 10.34 -10 10 C-3.84965831 2.51708428 -3.84965831 2.51708428 0 0 Z " fill="#6D98BC" transform="translate(22,660)"/>
</svg>
